<svg width="146" height="98" viewBox="0 0 146 98" fill="none" xmlns="http://www.w3.org/2000/svg">
<path d="M2 32.7584L0.014128 32.5211C-0.060996 33.1498 0.166003 33.7769 0.626124 34.2119C1.08625 34.6468 1.72514 34.8382 2.3486 34.7278L2 32.7584ZM69.1737 39.7195H67.1737C67.1737 40.6126 67.7658 41.3975 68.6246 41.6427C69.4834 41.8878 70.4007 41.5339 70.8722 40.7754L69.1737 39.7195ZM64.0719 12.3393L62.5972 10.9882C61.8968 11.7528 61.8968 12.9258 62.5972 13.6903L64.0719 12.3393ZM73 2.59375L74.4747 1.24273C74.0959 0.829213 73.5608 0.59375 73 0.59375C72.4392 0.59375 71.9041 0.829213 71.5253 1.24273L73 2.59375ZM81.9281 12.3393L83.4028 13.6903C84.1032 12.9258 84.1032 11.7528 83.4028 10.9882L81.9281 12.3393ZM76.8263 39.7195L75.1278 40.7754C75.5993 41.5339 76.5166 41.8878 77.3754 41.6427C78.2342 41.3975 78.8263 40.6126 78.8263 39.7195H76.8263ZM144 32.7584L143.651 34.7278C144.275 34.8382 144.914 34.6468 145.374 34.2119C145.834 33.7769 146.061 33.1498 145.986 32.5211L144 32.7584ZM122.317 55.4979L124.088 56.428C124.345 55.9394 124.388 55.3665 124.208 54.8449L122.317 55.4979ZM78.5269 55.4979L80.1401 54.3157C79.5027 53.446 78.2906 53.2381 77.3998 53.8458L78.5269 55.4979ZM75.1257 57.8183L73.9986 56.1662C73.5024 56.5047 73.1846 57.0484 73.1331 57.6469C73.0816 58.2454 73.3019 58.8354 73.733 59.2537L75.1257 57.8183ZM84.479 74.989L86.2224 75.969C86.4484 75.5671 86.5285 75.0994 86.4493 74.6452L84.479 74.989ZM73 95.4081L71.2566 96.3882C71.6108 97.0182 72.2773 97.4081 73 97.4081C73.7227 97.4081 74.3892 97.0182 74.7434 96.3882L73 95.4081ZM61.521 74.989L59.5507 74.6452C59.4715 75.0994 59.5516 75.5671 59.7776 75.969L61.521 74.989ZM70.8743 57.8183L72.267 59.2537C72.6981 58.8354 72.9184 58.2454 72.8669 57.6469C72.8154 57.0484 72.4976 56.5047 72.0014 56.1662L70.8743 57.8183ZM67.4731 55.4979L68.6002 53.8458C67.7094 53.2381 66.4973 53.446 65.8599 54.3157L67.4731 55.4979ZM23.6826 55.4979L21.7922 54.8449C21.6121 55.3665 21.6554 55.9394 21.912 56.428L23.6826 55.4979ZM25.3832 9.41111C16.3942 9.41111 10.2137 13.2835 6.21585 18.1462C2.27562 22.939 0.476207 28.6542 0.014128 32.5211L3.98587 32.9957C4.37409 29.7469 5.93336 24.7884 9.3057 20.6865C12.6205 16.6545 17.7064 13.4111 25.3832 13.4111V9.41111ZM71.1737 39.7195C71.1737 35.9879 69.4773 32.2325 66.8498 28.7956C64.2063 25.3376 60.5049 22.0458 56.1928 19.1977C47.5866 13.5134 36.2619 9.41111 25.3832 9.41111V13.4111C35.3369 13.4111 45.9074 17.1981 53.9883 22.5354C58.0198 25.1982 61.3599 28.2004 63.672 31.2249C66.0003 34.2705 67.1737 37.1861 67.1737 39.7195H71.1737ZM62.5972 13.6903C72.4634 24.4598 69.7526 35.0001 67.4751 38.6636L70.8722 40.7754C73.98 35.7763 76.7677 23.2367 65.5466 10.9882L62.5972 13.6903ZM71.5253 1.24273L62.5972 10.9882L65.5466 13.6903L74.4747 3.94477L71.5253 1.24273ZM71.5253 3.94477L80.4534 13.6903L83.4028 10.9882L74.4747 1.24273L71.5253 3.94477ZM80.4534 10.9882C69.2323 23.2367 72.02 35.7763 75.1278 40.7754L78.5249 38.6636C76.2474 35.0001 73.5366 24.4598 83.4028 13.6903L80.4534 10.9882ZM78.8263 39.7195C78.8263 37.1861 79.9997 34.2705 82.328 31.2249C84.6401 28.2004 87.9802 25.1982 92.0117 22.5354C100.093 17.1981 110.663 13.4111 120.617 13.4111V9.41111C109.738 9.41111 98.4134 13.5134 89.8072 19.1977C85.4951 22.0458 81.7937 25.3376 79.1502 28.7956C76.5227 32.2325 74.8263 35.9879 74.8263 39.7195H78.8263ZM120.617 13.4111C128.294 13.4111 133.38 16.6545 136.694 20.6865C140.067 24.7884 141.626 29.7469 142.014 32.9957L145.986 32.5211C145.524 28.6542 143.724 22.939 139.784 18.1462C135.786 13.2835 129.606 9.41111 120.617 9.41111V13.4111ZM144.349 30.789C137.855 29.6397 132.782 29.8809 128.888 31.2126C124.94 32.5631 122.31 35.0021 120.731 37.9827C117.662 43.775 118.73 51.2381 120.427 56.1509L124.208 54.8449C122.645 50.3217 121.97 44.1874 124.265 39.8553C125.368 37.7736 127.197 36.0185 130.183 34.9974C133.223 33.9575 137.56 33.6496 143.651 34.7278L144.349 30.789ZM120.547 54.5679C117.01 61.3019 113.222 65.1486 109.556 67.1135C105.929 69.0576 102.23 69.262 98.6151 68.3509C91.2212 66.4875 84.2807 59.9653 80.1401 54.3157L76.9138 56.6802C81.2762 62.6324 88.9184 70.0323 97.6376 72.2296C102.079 73.3488 106.82 73.1181 111.446 70.6391C116.033 68.1808 120.312 63.6162 124.088 56.428L120.547 54.5679ZM77.3998 53.8458L73.9986 56.1662L76.2529 59.4704L79.6541 57.1501L77.3998 53.8458ZM73.733 59.2537C79.4753 64.8252 81.9935 72.3799 82.5088 75.3328L86.4493 74.6452C85.8308 71.101 83.0206 62.6917 76.5185 56.3829L73.733 59.2537ZM82.7356 74.0089L71.2566 94.428L74.7434 96.3882L86.2224 75.969L82.7356 74.0089ZM59.7776 75.969L71.2566 96.3882L74.7434 94.428L63.2644 74.0089L59.7776 75.969ZM69.4815 56.3829C62.9794 62.6917 60.1692 71.101 59.5507 74.6452L63.4912 75.3328C64.0065 72.3799 66.5247 64.8252 72.267 59.2537L69.4815 56.3829ZM66.3459 57.1501L69.7471 59.4704L72.0014 56.1662L68.6002 53.8458L66.3459 57.1501ZM21.912 56.428C25.6876 63.6162 29.9675 68.1808 34.5544 70.6391C39.1801 73.1181 43.9212 73.3488 48.3624 72.2296C57.0816 70.0323 64.7238 62.6324 69.0862 56.6802L65.8599 54.3157C61.7193 59.9653 54.7788 66.4875 47.3849 68.3509C43.7695 69.262 40.0714 69.0576 36.4439 67.1135C32.7776 65.1486 28.9902 61.3019 25.4532 54.5679L21.912 56.428ZM2.3486 34.7278C8.43963 33.6496 12.7766 33.9575 15.8172 34.9974C18.8028 36.0185 20.6318 37.7736 21.7347 39.8553C24.0298 44.1874 23.3547 50.3217 21.7922 54.8449L25.573 56.1509C27.2701 51.2381 28.338 43.775 25.2692 37.9827C23.6902 35.0021 21.0603 32.5631 17.1116 31.2126C13.2178 29.8809 8.1448 29.6397 1.6514 30.789L2.3486 34.7278Z" fill="black"/>
</svg>
