<svg width="58" height="90" viewBox="0 0 58 90" fill="none" xmlns="http://www.w3.org/2000/svg">
<path d="M26.8224 69.4528L26.8224 87.7456L31.7145 87.7456L31.7145 68.9605C31.7145 68.1355 32.6573 67.6654 33.3163 68.1618L38.4967 72.0645C39.2422 72.6261 40.2825 71.9507 40.0728 71.0412L38.6764 64.9823C38.4835 64.1454 39.3658 63.4707 40.1229 63.8761L54.4367 71.5406C55.3844 72.048 56.3559 70.9069 55.7036 70.0523L41.2265 51.0841C40.7242 50.426 41.1935 49.4774 42.0215 49.4774L51.2474 49.4774C52.1816 49.4774 52.6057 48.3102 51.8892 47.7105L37.6113 35.7604C36.8949 35.1608 37.3189 33.9935 38.2531 33.9935L46.5336 33.9935C47.4318 33.9935 47.8746 32.9013 47.2299 32.2758L34.7706 20.1869C34.1259 19.5614 34.5687 18.4692 35.4669 18.4692L39.9319 18.4692C40.7682 18.4692 41.2351 17.5036 40.7156 16.8481L28.9998 2.06356L17.8843 16.8688C17.3894 17.5279 17.8597 18.4692 18.684 18.4692L23.2227 18.4692C24.1209 18.4692 24.5637 19.5614 23.919 20.1869L11.4597 32.2758C10.815 32.9013 11.2578 33.9935 12.156 33.9935L19.4766 33.9935C20.4061 33.9935 20.8328 35.151 20.1256 35.7543L6.10476 47.7167C5.39762 48.32 5.82427 49.4774 6.75381 49.4774L16.2003 49.4774C17.0221 49.4774 17.4931 50.4138 17.0031 51.0736L3.0413 69.8747C2.39533 70.7446 3.40077 71.8771 4.34104 71.3387L17.2223 63.9632C17.9765 63.5313 18.8846 64.2008 18.6951 65.049L16.3798 75.4114C16.1573 76.4072 17.394 77.0577 18.0884 76.31L25.0897 68.7722C25.7082 68.1064 26.8224 68.544 26.8224 69.4528Z" stroke="black" stroke-width="4" stroke-linejoin="round"/>
</svg>
