<svg width="100" height="100" viewBox="0 0 100 100" fill="none" xmlns="http://www.w3.org/2000/svg">
<path d="M70.0677 49.9991C70.0677 40.9614 62.7412 33.6349 53.7035 33.6349C44.6658 33.6349 37.3394 40.9614 37.3394 49.9991C37.3394 59.0368 44.6658 66.3633 53.7035 66.3633C62.7412 66.3633 70.0677 59.0368 70.0677 49.9991Z" stroke="black" stroke-width="4"/>
<mask id="path-2-inside-1_1541_55" fill="white">
<path d="M50 9.81094e-05C36.7392 9.63705e-05 24.0215 5.26793 14.6447 14.6447C5.26785 24.0215 9.29681e-06 36.7392 6.5567e-06 50C3.81659e-06 63.2609 5.26784 75.9785 14.6446 85.3554C24.0215 94.7322 36.7391 100 49.9999 100L50 83.0523C41.234 83.0523 32.827 79.57 26.6285 73.3715C20.43 67.173 16.9477 58.766 16.9477 50C16.9477 41.234 20.43 32.8271 26.6285 26.6286C32.827 20.4301 41.234 16.9478 50 16.9478L50 9.81094e-05Z"/>
</mask>
<path d="M50 9.81094e-05C36.7392 9.63705e-05 24.0215 5.26793 14.6447 14.6447C5.26785 24.0215 9.29681e-06 36.7392 6.5567e-06 50C3.81659e-06 63.2609 5.26784 75.9785 14.6446 85.3554C24.0215 94.7322 36.7391 100 49.9999 100L50 83.0523C41.234 83.0523 32.827 79.57 26.6285 73.3715C20.43 67.173 16.9477 58.766 16.9477 50C16.9477 41.234 20.43 32.8271 26.6285 26.6286C32.827 20.4301 41.234 16.9478 50 16.9478L50 9.81094e-05Z" stroke="black" stroke-width="8" mask="url(#path-2-inside-1_1541_55)"/>
</svg>
