<svg width="100" height="100" viewBox="0 0 100 100" fill="none" xmlns="http://www.w3.org/2000/svg">
<circle cx="50" cy="50" r="48" stroke="black" stroke-width="4"/>
<circle cx="50" cy="50" r="30" stroke="black" stroke-width="4"/>
<path d="M60 50L98 50" stroke="black" stroke-width="4" stroke-linecap="round"/>
<path d="M58.4578 43.5029C57.9691 43.0265 57.3889 42.6485 56.7503 42.3906C56.1117 42.1327 55.4272 42 54.7359 42C54.0446 42 53.3601 42.1327 52.7215 42.3906C52.0829 42.6485 51.5026 43.0265 51.0139 43.5029L49.9997 44.4913L48.9855 43.5029C47.9984 42.5409 46.6596 42.0005 45.2636 42.0005C43.8676 42.0005 42.5288 42.5409 41.5417 43.5029C40.5546 44.4649 40 45.7696 40 47.1301C40 48.4906 40.5546 49.7953 41.5417 50.7573L49.9997 59L58.4578 50.7573C58.9467 50.281 59.3346 49.7156 59.5992 49.0932C59.8638 48.4708 60 47.8038 60 47.1301C60 46.4564 59.8638 45.7894 59.5992 45.167C59.3346 44.5446 58.9467 43.9792 58.4578 43.5029Z" stroke="black" stroke-width="4" stroke-linecap="round" stroke-linejoin="round"/>
</svg>
