<svg width="89" height="87" viewBox="0 0 89 87" fill="none" xmlns="http://www.w3.org/2000/svg">
<path d="M80.4457 9.51462C78.3688 7.13226 75.9028 5.24241 73.1887 3.95303C70.4745 2.66365 67.5654 2 64.6275 2C61.6896 2 58.7805 2.66365 56.0663 3.95303C53.3522 5.24241 50.8862 7.13226 48.8093 9.51462L47.5134 11.0004C45.9193 12.828 43.0785 12.828 41.4844 11.0004L40.1886 9.51462C35.9933 4.70469 30.3033 2.00249 24.3703 2.00249C18.4374 2.00249 12.7474 4.70469 8.55212 9.51462C4.35687 14.3245 2 20.8482 2 27.6505C2 34.4528 4.35687 40.9764 8.55212 45.7864L41.4844 83.5438C43.0785 85.3715 45.9193 85.3715 47.5134 83.5438L80.4457 45.7864C82.5236 43.4051 84.1719 40.5778 85.2966 37.466C86.4212 34.3542 87 31.0188 87 27.6505C87 24.2821 86.4212 20.9468 85.2966 17.8349C84.1719 14.7231 82.5236 11.8959 80.4457 9.51462Z" stroke="black" stroke-width="4" stroke-linecap="round" stroke-linejoin="round"/>
</svg>
