<svg width="99" height="99" viewBox="0 0 99 99" fill="none" xmlns="http://www.w3.org/2000/svg">
<path d="M89.6746 10.3987C87.3533 7.73606 84.5972 5.62387 81.5638 4.1828C78.5303 2.74172 75.279 2 71.9954 2C68.7119 2 65.4605 2.74172 62.4271 4.1828C59.3936 5.62387 56.6375 7.73606 54.3163 10.3987L49.4988 15.922L44.6813 10.3987C39.9925 5.02288 33.6331 2.00279 27.0021 2.00279C20.3712 2.00279 14.0118 5.02288 9.32296 10.3987C4.63415 15.7745 2 23.0657 2 30.6682C2 38.2707 4.63415 45.5619 9.32296 50.9377L49.4988 97L89.6746 50.9377C91.997 48.2763 93.8392 45.1164 95.0961 41.6385C96.3531 38.1606 97 34.4328 97 30.6682C97 26.9035 96.3531 23.1758 95.0961 19.6979C93.8392 16.22 91.997 13.0601 89.6746 10.3987Z" stroke="black" stroke-width="4" stroke-linecap="round" stroke-linejoin="round"/>
</svg>
