<svg width="100" height="100" viewBox="0 0 100 100" fill="none" xmlns="http://www.w3.org/2000/svg">
<path d="M82 53.8242L84 53.8242V53.8242H82ZM17 53.8242L15 53.8242L15 53.8242L17 53.8242ZM50.8427 90.4731L49.8963 88.7112L50.8427 90.4731ZM48.1573 90.4731L49.1037 88.7112L48.1573 90.4731ZM82 8.31641H80V53.8242H82H84V8.31641H82ZM82 53.8242L80 53.8242C79.9999 61.0284 75.4727 68.2012 69.1979 74.4928C62.978 80.7293 55.3608 85.7761 49.8963 88.7112L50.8427 90.4731L51.789 92.235C57.5052 89.1648 65.4665 83.8985 72.0301 77.3174C78.5387 70.7915 83.9999 62.6424 84 53.8242L82 53.8242ZM48.1573 90.4731L49.1037 88.7112C43.6392 85.7761 36.022 80.7293 29.8021 74.4928C23.5273 68.2012 19.0001 61.0284 19 53.8242L17 53.8242L15 53.8242C15.0001 62.6424 20.4613 70.7915 26.9699 77.3174C33.5335 83.8985 41.4948 89.1648 47.211 92.235L48.1573 90.4731ZM17 53.8242H19V8.31641H17H15V53.8242H17ZM20 5.31641V7.31641H79V5.31641V3.31641H20V5.31641ZM17 8.31641H19C19 7.76412 19.4477 7.31641 20 7.31641V5.31641V3.31641C17.2386 3.31641 15 5.55498 15 8.31641H17ZM50.8427 90.4731L49.8963 88.7112C49.6444 88.8465 49.3556 88.8465 49.1037 88.7112L48.1573 90.4731L47.211 92.235C48.6449 93.0052 50.3551 93.0052 51.789 92.235L50.8427 90.4731ZM82 8.31641H84C84 5.55498 81.7614 3.31641 79 3.31641V5.31641V7.31641C79.5523 7.31641 80 7.76412 80 8.31641H82Z" fill="black"/>
<path d="M17 42.1836L82 42.1836" stroke="black" stroke-width="4" stroke-linecap="round"/>
<path d="M49.5 90.6895V5.31641" stroke="black" stroke-width="4"/>
</svg>
