<svg width="89" height="89" viewBox="0 0 89 89" fill="none" xmlns="http://www.w3.org/2000/svg">
<path d="M30 25C30 13.14 30.0009 2 30.0009 2C30.0009 2 30.0009 2.00033 62.5714 2.00033C62.5714 2.0086 87 24.5341 87 24.5341L30 25Z" stroke="black" stroke-width="4" stroke-linejoin="round"/>
<path d="M64 30C75.86 30 87 30.0009 87 30.0009C87 30.0009 86.9997 30.0009 86.9997 62.5714C86.9914 62.5714 64.4659 87 64.4659 87L64 30Z" stroke="black" stroke-width="4" stroke-linejoin="round"/>
<path d="M59 64C59 75.86 58.9991 87 58.9991 87C58.9991 87 58.9991 86.9997 26.4286 86.9997C26.4286 86.9914 1.99999 64.4659 1.99999 64.4659L59 64Z" stroke="black" stroke-width="4" stroke-linejoin="round"/>
<path d="M25 59C13.14 59 2 58.9991 2 58.9991C2 58.9991 2.00033 58.9991 2.00033 26.4286C2.0086 26.4286 24.5341 2 24.5341 2L25 59Z" stroke="black" stroke-width="4" stroke-linejoin="round"/>
</svg>
