<svg width="114" height="99" viewBox="0 0 114 99" fill="none" xmlns="http://www.w3.org/2000/svg">
<path fill-rule="evenodd" clip-rule="evenodd" d="M19.6961 2H111.436V31.4302C102.327 32.3346 95.1482 39.8014 94.6944 49.0361C94.6939 49.0453 94.6935 49.0545 94.693 49.0637C94.6788 49.362 94.6716 49.6621 94.6716 49.9639C94.6716 49.9645 94.6716 49.9651 94.6716 49.9657C94.6716 59.6247 102.023 67.5666 111.436 68.5012V97H19.6961C8.05392 97 2 91.4118 2 80.2353V49.9639V49.0361V18.7647C2 7.58823 8.05392 2 19.6961 2Z" fill="white"/>
<path d="M111.436 2H113.436V0H111.436V2ZM111.436 31.4302L111.634 33.4204L113.436 33.2415V31.4302H111.436ZM94.6944 49.0361L92.6968 48.9379L92.6968 48.9382L94.6944 49.0361ZM94.693 49.0637L96.6908 49.1589L96.6908 49.1582L94.693 49.0637ZM94.6716 49.9639L92.6716 49.9637V49.9639H94.6716ZM111.436 68.5012H113.436V66.6899L111.634 66.5109L111.436 68.5012ZM111.436 97V99H113.436V97H111.436ZM111.436 0H19.6961V4H111.436V0ZM113.436 31.4302V2H109.436V31.4302H113.436ZM96.6919 49.1343C97.0969 40.894 103.505 34.2275 111.634 33.4204L111.239 29.44C101.149 30.4418 93.1995 38.7088 92.6968 48.9379L96.6919 49.1343ZM96.6908 49.1582C96.6911 49.1509 96.6915 49.1434 96.692 49.134L92.6968 48.9382C92.6963 48.9471 92.6958 48.958 92.6953 48.9691L96.6908 49.1582ZM96.6716 49.9641C96.6716 49.694 96.678 49.4255 96.6908 49.1589L92.6953 48.9684C92.6796 49.2984 92.6716 49.6302 92.6716 49.9637L96.6716 49.9641ZM92.6716 49.9639C92.6716 49.9639 92.6716 49.9639 92.6716 49.9639C92.6716 49.9639 92.6716 49.9639 92.6716 49.9639C92.6716 49.9639 92.6716 49.9639 92.6716 49.9639C92.6716 49.9639 92.6716 49.9639 92.6716 49.9639C92.6716 49.9639 92.6716 49.9639 92.6716 49.9639C92.6716 49.9639 92.6716 49.9639 92.6716 49.9639C92.6716 49.9639 92.6716 49.9639 92.6716 49.9639C92.6716 49.9639 92.6716 49.9639 92.6716 49.9639C92.6716 49.9639 92.6716 49.9639 92.6716 49.9639C92.6716 49.9639 92.6716 49.9639 92.6716 49.9639C92.6716 49.9639 92.6716 49.9639 92.6716 49.964C92.6716 49.964 92.6716 49.964 92.6716 49.964C92.6716 49.964 92.6716 49.964 92.6716 49.964C92.6716 49.964 92.6716 49.964 92.6716 49.964C92.6716 49.964 92.6716 49.964 92.6716 49.964C92.6716 49.964 92.6716 49.964 92.6716 49.964C92.6716 49.964 92.6716 49.964 92.6716 49.964C92.6716 49.964 92.6716 49.964 92.6716 49.964C92.6716 49.964 92.6716 49.964 92.6716 49.964C92.6716 49.964 92.6716 49.964 92.6716 49.964C92.6716 49.964 92.6716 49.964 92.6716 49.964C92.6716 49.964 92.6716 49.964 92.6716 49.964C92.6716 49.964 92.6716 49.964 92.6716 49.964C92.6716 49.964 92.6716 49.964 92.6716 49.964C92.6716 49.964 92.6716 49.964 92.6716 49.964C92.6716 49.964 92.6716 49.964 92.6716 49.964C92.6716 49.964 92.6716 49.964 92.6716 49.964C92.6716 49.964 92.6716 49.964 92.6716 49.964C92.6716 49.964 92.6716 49.964 92.6716 49.964C92.6716 49.964 92.6716 49.964 92.6716 49.964C92.6716 49.964 92.6716 49.964 92.6716 49.964C92.6716 49.964 92.6716 49.964 92.6716 49.964C92.6716 49.964 92.6716 49.964 92.6716 49.964C92.6716 49.964 92.6716 49.964 92.6716 49.964C92.6716 49.964 92.6716 49.964 92.6716 49.964C92.6716 49.964 92.6716 49.964 92.6716 49.964C92.6716 49.964 92.6716 49.964 92.6716 49.964C92.6716 49.964 92.6716 49.964 92.6716 49.964C92.6716 49.964 92.6716 49.964 92.6716 49.964C92.6716 49.964 92.6716 49.9641 92.6716 49.9641C92.6716 49.9641 92.6716 49.9641 92.6716 49.9641C92.6716 49.9641 92.6716 49.9641 92.6716 49.9641C92.6716 49.9641 92.6716 49.9641 92.6716 49.9641C92.6716 49.9641 92.6716 49.9641 92.6716 49.9641C92.6716 49.9641 92.6716 49.9641 92.6716 49.9641C92.6716 49.9641 92.6716 49.9641 92.6716 49.9641C92.6716 49.9641 92.6716 49.9641 92.6716 49.9641C92.6716 49.9641 92.6716 49.9641 92.6716 49.9641C92.6716 49.9641 92.6716 49.9641 92.6716 49.9641C92.6716 49.9641 92.6716 49.9641 92.6716 49.9641C92.6716 49.9641 92.6716 49.9641 92.6716 49.9641C92.6716 49.9641 92.6716 49.9641 92.6716 49.9641C92.6716 49.9641 92.6716 49.9641 92.6716 49.9641C92.6716 49.9641 92.6716 49.9641 92.6716 49.9641C92.6716 49.9641 92.6716 49.9641 92.6716 49.9641C92.6716 49.9641 92.6716 49.9641 92.6716 49.9641C92.6716 49.9641 92.6716 49.9641 92.6716 49.9641C92.6716 49.9641 92.6716 49.9641 92.6716 49.9641C92.6716 49.9641 92.6716 49.9641 92.6716 49.9641C92.6716 49.9641 92.6716 49.9641 92.6716 49.9641C92.6716 49.9641 92.6716 49.9641 92.6716 49.9641C92.6716 49.9641 92.6716 49.9641 92.6716 49.9641C92.6716 49.9641 92.6716 49.9641 92.6716 49.9641C92.6716 49.9641 92.6716 49.9641 92.6716 49.9641C92.6716 49.9641 92.6716 49.9641 92.6716 49.9641C92.6716 49.9641 92.6716 49.9641 92.6716 49.9641C92.6716 49.9641 92.6716 49.9641 92.6716 49.9641C92.6716 49.9641 92.6716 49.9641 92.6716 49.9641C92.6716 49.9641 92.6716 49.9642 92.6716 49.9642C92.6716 49.9642 92.6716 49.9642 92.6716 49.9642C92.6716 49.9642 92.6716 49.9642 92.6716 49.9642C92.6716 49.9642 92.6716 49.9642 92.6716 49.9642C92.6716 49.9642 92.6716 49.9642 92.6716 49.9642C92.6716 49.9642 92.6716 49.9642 92.6716 49.9642C92.6716 49.9642 92.6716 49.9642 92.6716 49.9642C92.6716 49.9642 92.6716 49.9642 92.6716 49.9642C92.6716 49.9642 92.6716 49.9642 92.6716 49.9642C92.6716 49.9642 92.6716 49.9642 92.6716 49.9642C92.6716 49.9642 92.6716 49.9642 92.6716 49.9642C92.6716 49.9642 92.6716 49.9642 92.6716 49.9642C92.6716 49.9642 92.6716 49.9642 92.6716 49.9642C92.6716 49.9642 92.6716 49.9642 92.6716 49.9642C92.6716 49.9642 92.6716 49.9642 92.6716 49.9642C92.6716 49.9642 92.6716 49.9642 92.6716 49.9642C92.6716 49.9642 92.6716 49.9642 92.6716 49.9642C92.6716 49.9642 92.6716 49.9642 92.6716 49.9642C92.6716 49.9642 92.6716 49.9642 92.6716 49.9642C92.6716 49.9642 92.6716 49.9642 92.6716 49.9642C92.6716 49.9642 92.6716 49.9642 92.6716 49.9642C92.6716 49.9642 92.6716 49.9642 92.6716 49.9642C92.6716 49.9642 92.6716 49.9642 92.6716 49.9642C92.6716 49.9642 92.6716 49.9642 92.6716 49.9642C92.6716 49.9642 92.6716 49.9642 92.6716 49.9642C92.6716 49.9642 92.6716 49.9642 92.6716 49.9642C92.6716 49.9642 92.6716 49.9642 92.6716 49.9642C92.6716 49.9642 92.6716 49.9642 92.6716 49.9642C92.6716 49.9642 92.6716 49.9642 92.6716 49.9642C92.6716 49.9643 92.6716 49.9643 92.6716 49.9643C92.6716 49.9643 92.6716 49.9643 92.6716 49.9643C92.6716 49.9643 92.6716 49.9643 92.6716 49.9643C92.6716 49.9643 92.6716 49.9643 92.6716 49.9643C92.6716 49.9643 92.6716 49.9643 92.6716 49.9643C92.6716 49.9643 92.6716 49.9643 92.6716 49.9643C92.6716 49.9643 92.6716 49.9643 92.6716 49.9643C92.6716 49.9643 92.6716 49.9643 92.6716 49.9643C92.6716 49.9643 92.6716 49.9643 92.6716 49.9643C92.6716 49.9643 92.6716 49.9643 92.6716 49.9643C92.6716 49.9643 92.6716 49.9643 92.6716 49.9643C92.6716 49.9643 92.6716 49.9643 92.6716 49.9643C92.6716 49.9643 92.6716 49.9643 92.6716 49.9643C92.6716 49.9643 92.6716 49.9643 92.6716 49.9643C92.6716 49.9643 92.6716 49.9643 92.6716 49.9643C92.6716 49.9643 92.6716 49.9643 92.6716 49.9643C92.6716 49.9643 92.6716 49.9643 92.6716 49.9643C92.6716 49.9643 92.6716 49.9643 92.6716 49.9643C92.6716 49.9643 92.6716 49.9643 92.6716 49.9643C92.6716 49.9643 92.6716 49.9643 92.6716 49.9643C92.6716 49.9643 92.6716 49.9643 92.6716 49.9643C92.6716 49.9643 92.6716 49.9643 92.6716 49.9643C92.6716 49.9643 92.6716 49.9643 92.6716 49.9643C92.6716 49.9643 92.6716 49.9643 92.6716 49.9643C92.6716 49.9643 92.6716 49.9643 92.6716 49.9643C92.6716 49.9643 92.6716 49.9643 92.6716 49.9643C92.6716 49.9643 92.6716 49.9643 92.6716 49.9643C92.6716 49.9643 92.6716 49.9643 92.6716 49.9643C92.6716 49.9643 92.6716 49.9643 92.6716 49.9643C92.6716 49.9644 92.6716 49.9644 92.6716 49.9644C92.6716 49.9644 92.6716 49.9644 92.6716 49.9644C92.6716 49.9644 92.6716 49.9644 92.6716 49.9644C92.6716 49.9644 92.6716 49.9644 92.6716 49.9644C92.6716 49.9644 92.6716 49.9644 92.6716 49.9644C92.6716 49.9644 92.6716 49.9644 92.6716 49.9644C92.6716 49.9644 92.6716 49.9644 92.6716 49.9644C92.6716 49.9644 92.6716 49.9644 92.6716 49.9644C92.6716 49.9644 92.6716 49.9644 92.6716 49.9644C92.6716 49.9644 92.6716 49.9644 92.6716 49.9644C92.6716 49.9644 92.6716 49.9644 92.6716 49.9644C92.6716 49.9644 92.6716 49.9644 92.6716 49.9644C92.6716 49.9644 92.6716 49.9644 92.6716 49.9644C92.6716 49.9644 92.6716 49.9644 92.6716 49.9644C92.6716 49.9644 92.6716 49.9644 92.6716 49.9644C92.6716 49.9644 92.6716 49.9644 92.6716 49.9644C92.6716 49.9644 92.6716 49.9644 92.6716 49.9644C92.6716 49.9644 92.6716 49.9644 92.6716 49.9644C92.6716 49.9644 92.6716 49.9644 92.6716 49.9644C92.6716 49.9644 92.6716 49.9644 92.6716 49.9644C92.6716 49.9644 92.6716 49.9644 92.6716 49.9644C92.6716 49.9644 92.6716 49.9644 92.6716 49.9644C92.6716 49.9644 92.6716 49.9644 92.6716 49.9644C92.6716 49.9644 92.6716 49.9644 92.6716 49.9644C92.6716 49.9644 92.6716 49.9644 92.6716 49.9644C92.6716 49.9644 92.6716 49.9644 92.6716 49.9644C92.6716 49.9644 92.6716 49.9644 92.6716 49.9644C92.6716 49.9644 92.6716 49.9644 92.6716 49.9644C92.6716 49.9644 92.6716 49.9644 92.6716 49.9644C92.6716 49.9645 92.6716 49.9645 92.6716 49.9645C92.6716 49.9645 92.6716 49.9645 92.6716 49.9645C92.6716 49.9645 92.6716 49.9645 92.6716 49.9645C92.6716 49.9645 92.6716 49.9645 92.6716 49.9645C92.6716 49.9645 92.6716 49.9645 92.6716 49.9645C92.6716 49.9645 92.6716 49.9645 92.6716 49.9645C92.6716 49.9645 92.6716 49.9645 92.6716 49.9645C92.6716 49.9645 92.6716 49.9645 92.6716 49.9645C92.6716 49.9645 92.6716 49.9645 92.6716 49.9645C92.6716 49.9645 92.6716 49.9645 92.6716 49.9645C92.6716 49.9645 92.6716 49.9645 92.6716 49.9645C92.6716 49.9645 92.6716 49.9645 92.6716 49.9645C92.6716 49.9645 92.6716 49.9645 92.6716 49.9645C92.6716 49.9645 92.6716 49.9645 92.6716 49.9645C92.6716 49.9645 92.6716 49.9645 92.6716 49.9645C92.6716 49.9645 92.6716 49.9645 92.6716 49.9645C92.6716 49.9645 92.6716 49.9645 92.6716 49.9645C92.6716 49.9645 92.6716 49.9645 92.6716 49.9645C92.6716 49.9645 92.6716 49.9645 92.6716 49.9645C92.6716 49.9645 92.6716 49.9645 92.6716 49.9645C92.6716 49.9645 92.6716 49.9645 92.6716 49.9645C92.6716 49.9645 92.6716 49.9645 92.6716 49.9645C92.6716 49.9645 92.6716 49.9645 92.6716 49.9645C92.6716 49.9645 92.6716 49.9645 92.6716 49.9645C92.6716 49.9645 92.6716 49.9645 92.6716 49.9645C92.6716 49.9645 92.6716 49.9645 92.6716 49.9645C92.6716 49.9645 92.6716 49.9645 92.6716 49.9645C92.6716 49.9645 92.6716 49.9645 92.6716 49.9645C92.6716 49.9645 92.6716 49.9645 92.6716 49.9646C92.6716 49.9646 92.6716 49.9646 92.6716 49.9646C92.6716 49.9646 92.6716 49.9646 92.6716 49.9646C92.6716 49.9646 92.6716 49.9646 92.6716 49.9646C92.6716 49.9646 92.6716 49.9646 92.6716 49.9646C92.6716 49.9646 92.6716 49.9646 92.6716 49.9646C92.6716 49.9646 92.6716 49.9646 92.6716 49.9646C92.6716 49.9646 92.6716 49.9646 92.6716 49.9646C92.6716 49.9646 92.6716 49.9646 92.6716 49.9646C92.6716 49.9646 92.6716 49.9646 92.6716 49.9646C92.6716 49.9646 92.6716 49.9646 92.6716 49.9646C92.6716 49.9646 92.6716 49.9646 92.6716 49.9646C92.6716 49.9646 92.6716 49.9646 92.6716 49.9646C92.6716 49.9646 92.6716 49.9646 92.6716 49.9646C92.6716 49.9646 92.6716 49.9646 92.6716 49.9646C92.6716 49.9646 92.6716 49.9646 92.6716 49.9646C92.6716 49.9646 92.6716 49.9646 92.6716 49.9646C92.6716 49.9646 92.6716 49.9646 92.6716 49.9646C92.6716 49.9646 92.6716 49.9646 92.6716 49.9646C92.6716 49.9646 92.6716 49.9646 92.6716 49.9646C92.6716 49.9646 92.6716 49.9646 92.6716 49.9646C92.6716 49.9646 92.6716 49.9646 92.6716 49.9646C92.6716 49.9646 92.6716 49.9646 92.6716 49.9646C92.6716 49.9646 92.6716 49.9646 92.6716 49.9646C92.6716 49.9646 92.6716 49.9646 92.6716 49.9646C92.6716 49.9646 92.6716 49.9646 92.6716 49.9646C92.6716 49.9646 92.6716 49.9646 92.6716 49.9646C92.6716 49.9646 92.6716 49.9646 92.6716 49.9646C92.6716 49.9646 92.6716 49.9646 92.6716 49.9646C92.6716 49.9646 92.6716 49.9646 92.6716 49.9647C92.6716 49.9647 92.6716 49.9647 92.6716 49.9647C92.6716 49.9647 92.6716 49.9647 92.6716 49.9647C92.6716 49.9647 92.6716 49.9647 92.6716 49.9647C92.6716 49.9647 92.6716 49.9647 92.6716 49.9647C92.6716 49.9647 92.6716 49.9647 92.6716 49.9647C92.6716 49.9647 92.6716 49.9647 92.6716 49.9647C92.6716 49.9647 92.6716 49.9647 92.6716 49.9647C92.6716 49.9647 92.6716 49.9647 92.6716 49.9647C92.6716 49.9647 92.6716 49.9647 92.6716 49.9647C92.6716 49.9647 92.6716 49.9647 92.6716 49.9647C92.6716 49.9647 92.6716 49.9647 92.6716 49.9647C92.6716 49.9647 92.6716 49.9647 92.6716 49.9647C92.6716 49.9647 92.6716 49.9647 92.6716 49.9647C92.6716 49.9647 92.6716 49.9647 92.6716 49.9647C92.6716 49.9647 92.6716 49.9647 92.6716 49.9647C92.6716 49.9647 92.6716 49.9647 92.6716 49.9647C92.6716 49.9647 92.6716 49.9647 92.6716 49.9647C92.6716 49.9647 92.6716 49.9647 92.6716 49.9647C92.6716 49.9647 92.6716 49.9647 92.6716 49.9647C92.6716 49.9647 92.6716 49.9647 92.6716 49.9647C92.6716 49.9647 92.6716 49.9647 92.6716 49.9647C92.6716 49.9647 92.6716 49.9647 92.6716 49.9647C92.6716 49.9647 92.6716 49.9647 92.6716 49.9647C92.6716 49.9647 92.6716 49.9647 92.6716 49.9647C92.6716 49.9647 92.6716 49.9647 92.6716 49.9647C92.6716 49.9647 92.6716 49.9647 92.6716 49.9647C92.6716 49.9647 92.6716 49.9647 92.6716 49.9647C92.6716 49.9647 92.6716 49.9647 92.6716 49.9647C92.6716 49.9647 92.6716 49.9648 92.6716 49.9648C92.6716 49.9648 92.6716 49.9648 92.6716 49.9648C92.6716 49.9648 92.6716 49.9648 92.6716 49.9648C92.6716 49.9648 92.6716 49.9648 92.6716 49.9648C92.6716 49.9648 92.6716 49.9648 92.6716 49.9648C92.6716 49.9648 92.6716 49.9648 92.6716 49.9648C92.6716 49.9648 92.6716 49.9648 92.6716 49.9648C92.6716 49.9648 92.6716 49.9648 92.6716 49.9648C92.6716 49.9648 92.6716 49.9648 92.6716 49.9648C92.6716 49.9648 92.6716 49.9648 92.6716 49.9648C92.6716 49.9648 92.6716 49.9648 92.6716 49.9648C92.6716 49.9648 92.6716 49.9648 92.6716 49.9648C92.6716 49.9648 92.6716 49.9648 92.6716 49.9648C92.6716 49.9648 92.6716 49.9648 92.6716 49.9648C92.6716 49.9648 92.6716 49.9648 92.6716 49.9648C92.6716 49.9648 92.6716 49.9648 92.6716 49.9648C92.6716 49.9648 92.6716 49.9648 92.6716 49.9648C92.6716 49.9648 92.6716 49.9648 92.6716 49.9648C92.6716 49.9648 92.6716 49.9648 92.6716 49.9648C92.6716 49.9648 92.6716 49.9648 92.6716 49.9648C92.6716 49.9648 92.6716 49.9648 92.6716 49.9648C92.6716 49.9648 92.6716 49.9648 92.6716 49.9648C92.6716 49.9648 92.6716 49.9648 92.6716 49.9648C92.6716 49.9648 92.6716 49.9648 92.6716 49.9648C92.6716 49.9648 92.6716 49.9648 92.6716 49.9648C92.6716 49.9648 92.6716 49.9648 92.6716 49.9648C92.6716 49.9648 92.6716 49.9648 92.6716 49.9648C92.6716 49.9648 92.6716 49.9648 92.6716 49.9648C92.6716 49.9648 92.6716 49.9648 92.6716 49.9648C92.6716 49.9648 92.6716 49.9649 92.6716 49.9649C92.6716 49.9649 92.6716 49.9649 92.6716 49.9649C92.6716 49.9649 92.6716 49.9649 92.6716 49.9649C92.6716 49.9649 92.6716 49.9649 92.6716 49.9649C92.6716 49.9649 92.6716 49.9649 92.6716 49.9649C92.6716 49.9649 92.6716 49.9649 92.6716 49.9649C92.6716 49.9649 92.6716 49.9649 92.6716 49.9649C92.6716 49.9649 92.6716 49.9649 92.6716 49.9649C92.6716 49.9649 92.6716 49.9649 92.6716 49.9649C92.6716 49.9649 92.6716 49.9649 92.6716 49.9649C92.6716 49.9649 92.6716 49.9649 92.6716 49.9649C92.6716 49.9649 92.6716 49.9649 92.6716 49.9649C92.6716 49.9649 92.6716 49.9649 92.6716 49.9649C92.6716 49.9649 92.6716 49.9649 92.6716 49.9649C92.6716 49.9649 92.6716 49.9649 92.6716 49.9649C92.6716 49.9649 92.6716 49.9649 92.6716 49.9649C92.6716 49.9649 92.6716 49.9649 92.6716 49.9649C92.6716 49.9649 92.6716 49.9649 92.6716 49.9649C92.6716 49.9649 92.6716 49.9649 92.6716 49.9649C92.6716 49.9649 92.6716 49.9649 92.6716 49.9649C92.6716 49.9649 92.6716 49.9649 92.6716 49.9649C92.6716 49.9649 92.6716 49.9649 92.6716 49.9649C92.6716 49.9649 92.6716 49.9649 92.6716 49.9649C92.6716 49.9649 92.6716 49.9649 92.6716 49.9649C92.6716 49.9649 92.6716 49.9649 92.6716 49.9649C92.6716 49.9649 92.6716 49.9649 92.6716 49.9649C92.6716 49.9649 92.6716 49.9649 92.6716 49.9649C92.6716 49.9649 92.6716 49.9649 92.6716 49.9649C92.6716 49.9649 92.6716 49.9649 92.6716 49.9649C92.6716 49.965 92.6716 49.965 92.6716 49.965C92.6716 49.965 92.6716 49.965 92.6716 49.965C92.6716 49.965 92.6716 49.965 92.6716 49.965C92.6716 49.965 92.6716 49.965 92.6716 49.965C92.6716 49.965 92.6716 49.965 92.6716 49.965C92.6716 49.965 92.6716 49.965 92.6716 49.965C92.6716 49.965 92.6716 49.965 92.6716 49.965C92.6716 49.965 92.6716 49.965 92.6716 49.965C92.6716 49.965 92.6716 49.965 92.6716 49.965C92.6716 49.965 92.6716 49.965 92.6716 49.965C92.6716 49.965 92.6716 49.965 92.6716 49.965C92.6716 49.965 92.6716 49.965 92.6716 49.965C92.6716 49.965 92.6716 49.965 92.6716 49.965C92.6716 49.965 92.6716 49.965 92.6716 49.965C92.6716 49.965 92.6716 49.965 92.6716 49.965C92.6716 49.965 92.6716 49.965 92.6716 49.965C92.6716 49.965 92.6716 49.965 92.6716 49.965C92.6716 49.965 92.6716 49.965 92.6716 49.965C92.6716 49.965 92.6716 49.965 92.6716 49.965C92.6716 49.965 92.6716 49.965 92.6716 49.965C92.6716 49.965 92.6716 49.965 92.6716 49.965C92.6716 49.965 92.6716 49.965 92.6716 49.965C92.6716 49.965 92.6716 49.965 92.6716 49.965C92.6716 49.965 92.6716 49.965 92.6716 49.965C92.6716 49.965 92.6716 49.965 92.6716 49.965C92.6716 49.965 92.6716 49.965 92.6716 49.965C92.6716 49.965 92.6716 49.965 92.6716 49.965C92.6716 49.965 92.6716 49.965 92.6716 49.965C92.6716 49.965 92.6716 49.965 92.6716 49.965C92.6716 49.9651 92.6716 49.9651 92.6716 49.9651C92.6716 49.9651 92.6716 49.9651 92.6716 49.9651C92.6716 49.9651 92.6716 49.9651 92.6716 49.9651C92.6716 49.9651 92.6716 49.9651 92.6716 49.9651C92.6716 49.9651 92.6716 49.9651 92.6716 49.9651C92.6716 49.9651 92.6716 49.9651 92.6716 49.9651C92.6716 49.9651 92.6716 49.9651 92.6716 49.9651C92.6716 49.9651 92.6716 49.9651 92.6716 49.9651C92.6716 49.9651 92.6716 49.9651 92.6716 49.9651C92.6716 49.9651 92.6716 49.9651 92.6716 49.9651C92.6716 49.9651 92.6716 49.9651 92.6716 49.9651C92.6716 49.9651 92.6716 49.9651 92.6716 49.9651C92.6716 49.9651 92.6716 49.9651 92.6716 49.9651C92.6716 49.9651 92.6716 49.9651 92.6716 49.9651C92.6716 49.9651 92.6716 49.9651 92.6716 49.9651C92.6716 49.9651 92.6716 49.9651 92.6716 49.9651C92.6716 49.9651 92.6716 49.9651 92.6716 49.9651C92.6716 49.9651 92.6716 49.9651 92.6716 49.9651C92.6716 49.9651 92.6716 49.9651 92.6716 49.9651C92.6716 49.9651 92.6716 49.9651 92.6716 49.9651C92.6716 49.9651 92.6716 49.9651 92.6716 49.9651C92.6716 49.9651 92.6716 49.9651 92.6716 49.9651C92.6716 49.9651 92.6716 49.9651 92.6716 49.9651C92.6716 49.9651 92.6716 49.9651 92.6716 49.9651C92.6716 49.9651 92.6716 49.9651 92.6716 49.9651C92.6716 49.9651 92.6716 49.9651 92.6716 49.9651C92.6716 49.9651 92.6716 49.9651 92.6716 49.9651C92.6716 49.9651 92.6716 49.9651 92.6716 49.9651C92.6716 49.9651 92.6716 49.9651 92.6716 49.9651C92.6716 49.9652 92.6716 49.9652 92.6716 49.9652C92.6716 49.9652 92.6716 49.9652 92.6716 49.9652C92.6716 49.9652 92.6716 49.9652 92.6716 49.9652C92.6716 49.9652 92.6716 49.9652 92.6716 49.9652C92.6716 49.9652 92.6716 49.9652 92.6716 49.9652C92.6716 49.9652 92.6716 49.9652 92.6716 49.9652C92.6716 49.9652 92.6716 49.9652 92.6716 49.9652C92.6716 49.9652 92.6716 49.9652 92.6716 49.9652C92.6716 49.9652 92.6716 49.9652 92.6716 49.9652C92.6716 49.9652 92.6716 49.9652 92.6716 49.9652C92.6716 49.9652 92.6716 49.9652 92.6716 49.9652C92.6716 49.9652 92.6716 49.9652 92.6716 49.9652C92.6716 49.9652 92.6716 49.9652 92.6716 49.9652C92.6716 49.9652 92.6716 49.9652 92.6716 49.9652C92.6716 49.9652 92.6716 49.9652 92.6716 49.9652C92.6716 49.9652 92.6716 49.9652 92.6716 49.9652C92.6716 49.9652 92.6716 49.9652 92.6716 49.9652C92.6716 49.9652 92.6716 49.9652 92.6716 49.9652C92.6716 49.9652 92.6716 49.9652 92.6716 49.9652C92.6716 49.9652 92.6716 49.9652 92.6716 49.9652C92.6716 49.9652 92.6716 49.9652 92.6716 49.9652C92.6716 49.9652 92.6716 49.9652 92.6716 49.9652C92.6716 49.9652 92.6716 49.9652 92.6716 49.9652C92.6716 49.9652 92.6716 49.9652 92.6716 49.9652C92.6716 49.9652 92.6716 49.9652 92.6716 49.9652C92.6716 49.9652 92.6716 49.9652 92.6716 49.9652C92.6716 49.9652 92.6716 49.9652 92.6716 49.9652C92.6716 49.9652 92.6716 49.9652 92.6716 49.9652C92.6716 49.9652 92.6716 49.9652 92.6716 49.9653C92.6716 49.9653 92.6716 49.9653 92.6716 49.9653C92.6716 49.9653 92.6716 49.9653 92.6716 49.9653C92.6716 49.9653 92.6716 49.9653 92.6716 49.9653C92.6716 49.9653 92.6716 49.9653 92.6716 49.9653C92.6716 49.9653 92.6716 49.9653 92.6716 49.9653C92.6716 49.9653 92.6716 49.9653 92.6716 49.9653C92.6716 49.9653 92.6716 49.9653 92.6716 49.9653C92.6716 49.9653 92.6716 49.9653 92.6716 49.9653C92.6716 49.9653 92.6716 49.9653 92.6716 49.9653C92.6716 49.9653 92.6716 49.9653 92.6716 49.9653C92.6716 49.9653 92.6716 49.9653 92.6716 49.9653C92.6716 49.9653 92.6716 49.9653 92.6716 49.9653C92.6716 49.9653 92.6716 49.9653 92.6716 49.9653C92.6716 49.9653 92.6716 49.9653 92.6716 49.9653C92.6716 49.9653 92.6716 49.9653 92.6716 49.9653C92.6716 49.9653 92.6716 49.9653 92.6716 49.9653C92.6716 49.9653 92.6716 49.9653 92.6716 49.9653C92.6716 49.9653 92.6716 49.9653 92.6716 49.9653C92.6716 49.9653 92.6716 49.9653 92.6716 49.9653C92.6716 49.9653 92.6716 49.9653 92.6716 49.9653C92.6716 49.9653 92.6716 49.9653 92.6716 49.9653C92.6716 49.9653 92.6716 49.9653 92.6716 49.9653C92.6716 49.9653 92.6716 49.9653 92.6716 49.9653C92.6716 49.9653 92.6716 49.9653 92.6716 49.9653C92.6716 49.9653 92.6716 49.9653 92.6716 49.9653C92.6716 49.9653 92.6716 49.9653 92.6716 49.9653C92.6716 49.9653 92.6716 49.9653 92.6716 49.9653C92.6716 49.9653 92.6716 49.9653 92.6716 49.9653C92.6716 49.9653 92.6716 49.9653 92.6716 49.9654C92.6716 49.9654 92.6716 49.9654 92.6716 49.9654C92.6716 49.9654 92.6716 49.9654 92.6716 49.9654C92.6716 49.9654 92.6716 49.9654 92.6716 49.9654C92.6716 49.9654 92.6716 49.9654 92.6716 49.9654C92.6716 49.9654 92.6716 49.9654 92.6716 49.9654C92.6716 49.9654 92.6716 49.9654 92.6716 49.9654C92.6716 49.9654 92.6716 49.9654 92.6716 49.9654C92.6716 49.9654 92.6716 49.9654 92.6716 49.9654C92.6716 49.9654 92.6716 49.9654 92.6716 49.9654C92.6716 49.9654 92.6716 49.9654 92.6716 49.9654C92.6716 49.9654 92.6716 49.9654 92.6716 49.9654C92.6716 49.9654 92.6716 49.9654 92.6716 49.9654C92.6716 49.9654 92.6716 49.9654 92.6716 49.9654C92.6716 49.9654 92.6716 49.9654 92.6716 49.9654C92.6716 49.9654 92.6716 49.9654 92.6716 49.9654C92.6716 49.9654 92.6716 49.9654 92.6716 49.9654C92.6716 49.9654 92.6716 49.9654 92.6716 49.9654C92.6716 49.9654 92.6716 49.9654 92.6716 49.9654C92.6716 49.9654 92.6716 49.9654 92.6716 49.9654C92.6716 49.9654 92.6716 49.9654 92.6716 49.9654C92.6716 49.9654 92.6716 49.9654 92.6716 49.9654C92.6716 49.9654 92.6716 49.9654 92.6716 49.9654C92.6716 49.9654 92.6716 49.9654 92.6716 49.9654C92.6716 49.9654 92.6716 49.9654 92.6716 49.9654C92.6716 49.9654 92.6716 49.9654 92.6716 49.9654C92.6716 49.9654 92.6716 49.9654 92.6716 49.9654C92.6716 49.9654 92.6716 49.9654 92.6716 49.9654C92.6716 49.9654 92.6716 49.9654 92.6716 49.9654C92.6716 49.9654 92.6716 49.9655 92.6716 49.9655C92.6716 49.9655 92.6716 49.9655 92.6716 49.9655C92.6716 49.9655 92.6716 49.9655 92.6716 49.9655C92.6716 49.9655 92.6716 49.9655 92.6716 49.9655C92.6716 49.9655 92.6716 49.9655 92.6716 49.9655C92.6716 49.9655 92.6716 49.9655 92.6716 49.9655C92.6716 49.9655 92.6716 49.9655 92.6716 49.9655C92.6716 49.9655 92.6716 49.9655 92.6716 49.9655C92.6716 49.9655 92.6716 49.9655 92.6716 49.9655C92.6716 49.9655 92.6716 49.9655 92.6716 49.9655C92.6716 49.9655 92.6716 49.9655 92.6716 49.9655C92.6716 49.9655 92.6716 49.9655 92.6716 49.9655C92.6716 49.9655 92.6716 49.9655 92.6716 49.9655C92.6716 49.9655 92.6716 49.9655 92.6716 49.9655C92.6716 49.9655 92.6716 49.9655 92.6716 49.9655C92.6716 49.9655 92.6716 49.9655 92.6716 49.9655C92.6716 49.9655 92.6716 49.9655 92.6716 49.9655C92.6716 49.9655 92.6716 49.9655 92.6716 49.9655C92.6716 49.9655 92.6716 49.9655 92.6716 49.9655C92.6716 49.9655 92.6716 49.9655 92.6716 49.9655C92.6716 49.9655 92.6716 49.9655 92.6716 49.9655C92.6716 49.9655 92.6716 49.9655 92.6716 49.9655C92.6716 49.9655 92.6716 49.9655 92.6716 49.9655C92.6716 49.9655 92.6716 49.9655 92.6716 49.9655C92.6716 49.9655 92.6716 49.9655 92.6716 49.9655C92.6716 49.9655 92.6716 49.9655 92.6716 49.9655C92.6716 49.9655 92.6716 49.9655 92.6716 49.9655C92.6716 49.9655 92.6716 49.9655 92.6716 49.9655C92.6716 49.9655 92.6716 49.9655 92.6716 49.9655C92.6716 49.9655 92.6716 49.9656 92.6716 49.9656C92.6716 49.9656 92.6716 49.9656 92.6716 49.9656C92.6716 49.9656 92.6716 49.9656 92.6716 49.9656C92.6716 49.9656 92.6716 49.9656 92.6716 49.9656C92.6716 49.9656 92.6716 49.9656 92.6716 49.9656C92.6716 49.9656 92.6716 49.9656 92.6716 49.9656C92.6716 49.9656 92.6716 49.9656 92.6716 49.9656C92.6716 49.9656 92.6716 49.9656 92.6716 49.9656C92.6716 49.9656 92.6716 49.9656 92.6716 49.9656C92.6716 49.9656 92.6716 49.9656 92.6716 49.9656C92.6716 49.9656 92.6716 49.9656 92.6716 49.9656C92.6716 49.9656 92.6716 49.9656 92.6716 49.9656C92.6716 49.9656 92.6716 49.9656 92.6716 49.9656C92.6716 49.9656 92.6716 49.9656 92.6716 49.9656C92.6716 49.9656 92.6716 49.9656 92.6716 49.9656C92.6716 49.9656 92.6716 49.9656 92.6716 49.9656C92.6716 49.9656 92.6716 49.9656 92.6716 49.9656C92.6716 49.9656 92.6716 49.9656 92.6716 49.9656C92.6716 49.9656 92.6716 49.9656 92.6716 49.9656C92.6716 49.9656 92.6716 49.9656 92.6716 49.9656C92.6716 49.9656 92.6716 49.9656 92.6716 49.9656C92.6716 49.9656 92.6716 49.9656 92.6716 49.9656C92.6716 49.9656 92.6716 49.9656 92.6716 49.9656C92.6716 49.9656 92.6716 49.9656 92.6716 49.9656C92.6716 49.9656 92.6716 49.9656 92.6716 49.9656C92.6716 49.9656 92.6716 49.9656 92.6716 49.9656C92.6716 49.9656 92.6716 49.9656 92.6716 49.9656C92.6716 49.9656 92.6716 49.9656 92.6716 49.9656C92.6716 49.9656 92.6716 49.9656 92.6716 49.9656C92.6716 49.9656 92.6716 49.9657 92.6716 49.9657C92.6716 49.9657 92.6716 49.9657 92.6716 49.9657C92.6716 49.9657 92.6716 49.9657 92.6716 49.9657C92.6716 49.9657 92.6716 49.9657 92.6716 49.9657C92.6716 49.9657 92.6716 49.9657 92.6716 49.9657C92.6716 49.9657 92.6716 49.9657 92.6716 49.9657C92.6716 49.9657 92.6716 49.9657 92.6716 49.9657C92.6716 49.9657 92.6716 49.9657 92.6716 49.9657C92.6716 49.9657 92.6716 49.9657 92.6716 49.9657C92.6716 49.9657 92.6716 49.9657 92.6716 49.9657C92.6716 49.9657 92.6716 49.9657 92.6716 49.9657H96.6716C96.6716 49.9657 96.6716 49.9657 96.6716 49.9657C96.6716 49.9657 96.6716 49.9657 96.6716 49.9657C96.6716 49.9657 96.6716 49.9657 96.6716 49.9657C96.6716 49.9657 96.6716 49.9657 96.6716 49.9657C96.6716 49.9657 96.6716 49.9657 96.6716 49.9657C96.6716 49.9657 96.6716 49.9657 96.6716 49.9657C96.6716 49.9657 96.6716 49.9657 96.6716 49.9657C96.6716 49.9657 96.6716 49.9657 96.6716 49.9657C96.6716 49.9657 96.6716 49.9657 96.6716 49.9657C96.6716 49.9657 96.6716 49.9657 96.6716 49.9657C96.6716 49.9657 96.6716 49.9656 96.6716 49.9656C96.6716 49.9656 96.6716 49.9656 96.6716 49.9656C96.6716 49.9656 96.6716 49.9656 96.6716 49.9656C96.6716 49.9656 96.6716 49.9656 96.6716 49.9656C96.6716 49.9656 96.6716 49.9656 96.6716 49.9656C96.6716 49.9656 96.6716 49.9656 96.6716 49.9656C96.6716 49.9656 96.6716 49.9656 96.6716 49.9656C96.6716 49.9656 96.6716 49.9656 96.6716 49.9656C96.6716 49.9656 96.6716 49.9656 96.6716 49.9656C96.6716 49.9656 96.6716 49.9656 96.6716 49.9656C96.6716 49.9656 96.6716 49.9656 96.6716 49.9656C96.6716 49.9656 96.6716 49.9656 96.6716 49.9656C96.6716 49.9656 96.6716 49.9656 96.6716 49.9656C96.6716 49.9656 96.6716 49.9656 96.6716 49.9656C96.6716 49.9656 96.6716 49.9656 96.6716 49.9656C96.6716 49.9656 96.6716 49.9656 96.6716 49.9656C96.6716 49.9656 96.6716 49.9656 96.6716 49.9656C96.6716 49.9656 96.6716 49.9656 96.6716 49.9656C96.6716 49.9656 96.6716 49.9656 96.6716 49.9656C96.6716 49.9656 96.6716 49.9656 96.6716 49.9656C96.6716 49.9656 96.6716 49.9656 96.6716 49.9656C96.6716 49.9656 96.6716 49.9656 96.6716 49.9656C96.6716 49.9656 96.6716 49.9656 96.6716 49.9656C96.6716 49.9656 96.6716 49.9656 96.6716 49.9656C96.6716 49.9656 96.6716 49.9656 96.6716 49.9656C96.6716 49.9656 96.6716 49.9656 96.6716 49.9656C96.6716 49.9656 96.6716 49.9656 96.6716 49.9656C96.6716 49.9656 96.6716 49.9656 96.6716 49.9656C96.6716 49.9656 96.6716 49.9656 96.6716 49.9656C96.6716 49.9656 96.6716 49.9655 96.6716 49.9655C96.6716 49.9655 96.6716 49.9655 96.6716 49.9655C96.6716 49.9655 96.6716 49.9655 96.6716 49.9655C96.6716 49.9655 96.6716 49.9655 96.6716 49.9655C96.6716 49.9655 96.6716 49.9655 96.6716 49.9655C96.6716 49.9655 96.6716 49.9655 96.6716 49.9655C96.6716 49.9655 96.6716 49.9655 96.6716 49.9655C96.6716 49.9655 96.6716 49.9655 96.6716 49.9655C96.6716 49.9655 96.6716 49.9655 96.6716 49.9655C96.6716 49.9655 96.6716 49.9655 96.6716 49.9655C96.6716 49.9655 96.6716 49.9655 96.6716 49.9655C96.6716 49.9655 96.6716 49.9655 96.6716 49.9655C96.6716 49.9655 96.6716 49.9655 96.6716 49.9655C96.6716 49.9655 96.6716 49.9655 96.6716 49.9655C96.6716 49.9655 96.6716 49.9655 96.6716 49.9655C96.6716 49.9655 96.6716 49.9655 96.6716 49.9655C96.6716 49.9655 96.6716 49.9655 96.6716 49.9655C96.6716 49.9655 96.6716 49.9655 96.6716 49.9655C96.6716 49.9655 96.6716 49.9655 96.6716 49.9655C96.6716 49.9655 96.6716 49.9655 96.6716 49.9655C96.6716 49.9655 96.6716 49.9655 96.6716 49.9655C96.6716 49.9655 96.6716 49.9655 96.6716 49.9655C96.6716 49.9655 96.6716 49.9655 96.6716 49.9655C96.6716 49.9655 96.6716 49.9655 96.6716 49.9655C96.6716 49.9655 96.6716 49.9655 96.6716 49.9655C96.6716 49.9655 96.6716 49.9655 96.6716 49.9655C96.6716 49.9655 96.6716 49.9655 96.6716 49.9655C96.6716 49.9655 96.6716 49.9655 96.6716 49.9655C96.6716 49.9655 96.6716 49.9655 96.6716 49.9655C96.6716 49.9655 96.6716 49.9654 96.6716 49.9654C96.6716 49.9654 96.6716 49.9654 96.6716 49.9654C96.6716 49.9654 96.6716 49.9654 96.6716 49.9654C96.6716 49.9654 96.6716 49.9654 96.6716 49.9654C96.6716 49.9654 96.6716 49.9654 96.6716 49.9654C96.6716 49.9654 96.6716 49.9654 96.6716 49.9654C96.6716 49.9654 96.6716 49.9654 96.6716 49.9654C96.6716 49.9654 96.6716 49.9654 96.6716 49.9654C96.6716 49.9654 96.6716 49.9654 96.6716 49.9654C96.6716 49.9654 96.6716 49.9654 96.6716 49.9654C96.6716 49.9654 96.6716 49.9654 96.6716 49.9654C96.6716 49.9654 96.6716 49.9654 96.6716 49.9654C96.6716 49.9654 96.6716 49.9654 96.6716 49.9654C96.6716 49.9654 96.6716 49.9654 96.6716 49.9654C96.6716 49.9654 96.6716 49.9654 96.6716 49.9654C96.6716 49.9654 96.6716 49.9654 96.6716 49.9654C96.6716 49.9654 96.6716 49.9654 96.6716 49.9654C96.6716 49.9654 96.6716 49.9654 96.6716 49.9654C96.6716 49.9654 96.6716 49.9654 96.6716 49.9654C96.6716 49.9654 96.6716 49.9654 96.6716 49.9654C96.6716 49.9654 96.6716 49.9654 96.6716 49.9654C96.6716 49.9654 96.6716 49.9654 96.6716 49.9654C96.6716 49.9654 96.6716 49.9654 96.6716 49.9654C96.6716 49.9654 96.6716 49.9654 96.6716 49.9654C96.6716 49.9654 96.6716 49.9654 96.6716 49.9654C96.6716 49.9654 96.6716 49.9654 96.6716 49.9654C96.6716 49.9654 96.6716 49.9654 96.6716 49.9654C96.6716 49.9654 96.6716 49.9654 96.6716 49.9654C96.6716 49.9654 96.6716 49.9654 96.6716 49.9654C96.6716 49.9653 96.6716 49.9653 96.6716 49.9653C96.6716 49.9653 96.6716 49.9653 96.6716 49.9653C96.6716 49.9653 96.6716 49.9653 96.6716 49.9653C96.6716 49.9653 96.6716 49.9653 96.6716 49.9653C96.6716 49.9653 96.6716 49.9653 96.6716 49.9653C96.6716 49.9653 96.6716 49.9653 96.6716 49.9653C96.6716 49.9653 96.6716 49.9653 96.6716 49.9653C96.6716 49.9653 96.6716 49.9653 96.6716 49.9653C96.6716 49.9653 96.6716 49.9653 96.6716 49.9653C96.6716 49.9653 96.6716 49.9653 96.6716 49.9653C96.6716 49.9653 96.6716 49.9653 96.6716 49.9653C96.6716 49.9653 96.6716 49.9653 96.6716 49.9653C96.6716 49.9653 96.6716 49.9653 96.6716 49.9653C96.6716 49.9653 96.6716 49.9653 96.6716 49.9653C96.6716 49.9653 96.6716 49.9653 96.6716 49.9653C96.6716 49.9653 96.6716 49.9653 96.6716 49.9653C96.6716 49.9653 96.6716 49.9653 96.6716 49.9653C96.6716 49.9653 96.6716 49.9653 96.6716 49.9653C96.6716 49.9653 96.6716 49.9653 96.6716 49.9653C96.6716 49.9653 96.6716 49.9653 96.6716 49.9653C96.6716 49.9653 96.6716 49.9653 96.6716 49.9653C96.6716 49.9653 96.6716 49.9653 96.6716 49.9653C96.6716 49.9653 96.6716 49.9653 96.6716 49.9653C96.6716 49.9653 96.6716 49.9653 96.6716 49.9653C96.6716 49.9653 96.6716 49.9653 96.6716 49.9653C96.6716 49.9653 96.6716 49.9653 96.6716 49.9653C96.6716 49.9653 96.6716 49.9653 96.6716 49.9653C96.6716 49.9653 96.6716 49.9653 96.6716 49.9653C96.6716 49.9653 96.6716 49.9653 96.6716 49.9653C96.6716 49.9652 96.6716 49.9652 96.6716 49.9652C96.6716 49.9652 96.6716 49.9652 96.6716 49.9652C96.6716 49.9652 96.6716 49.9652 96.6716 49.9652C96.6716 49.9652 96.6716 49.9652 96.6716 49.9652C96.6716 49.9652 96.6716 49.9652 96.6716 49.9652C96.6716 49.9652 96.6716 49.9652 96.6716 49.9652C96.6716 49.9652 96.6716 49.9652 96.6716 49.9652C96.6716 49.9652 96.6716 49.9652 96.6716 49.9652C96.6716 49.9652 96.6716 49.9652 96.6716 49.9652C96.6716 49.9652 96.6716 49.9652 96.6716 49.9652C96.6716 49.9652 96.6716 49.9652 96.6716 49.9652C96.6716 49.9652 96.6716 49.9652 96.6716 49.9652C96.6716 49.9652 96.6716 49.9652 96.6716 49.9652C96.6716 49.9652 96.6716 49.9652 96.6716 49.9652C96.6716 49.9652 96.6716 49.9652 96.6716 49.9652C96.6716 49.9652 96.6716 49.9652 96.6716 49.9652C96.6716 49.9652 96.6716 49.9652 96.6716 49.9652C96.6716 49.9652 96.6716 49.9652 96.6716 49.9652C96.6716 49.9652 96.6716 49.9652 96.6716 49.9652C96.6716 49.9652 96.6716 49.9652 96.6716 49.9652C96.6716 49.9652 96.6716 49.9652 96.6716 49.9652C96.6716 49.9652 96.6716 49.9652 96.6716 49.9652C96.6716 49.9652 96.6716 49.9652 96.6716 49.9652C96.6716 49.9652 96.6716 49.9652 96.6716 49.9652C96.6716 49.9652 96.6716 49.9652 96.6716 49.9652C96.6716 49.9652 96.6716 49.9652 96.6716 49.9652C96.6716 49.9652 96.6716 49.9652 96.6716 49.9652C96.6716 49.9652 96.6716 49.9652 96.6716 49.9652C96.6716 49.9652 96.6716 49.9652 96.6716 49.9651C96.6716 49.9651 96.6716 49.9651 96.6716 49.9651C96.6716 49.9651 96.6716 49.9651 96.6716 49.9651C96.6716 49.9651 96.6716 49.9651 96.6716 49.9651C96.6716 49.9651 96.6716 49.9651 96.6716 49.9651C96.6716 49.9651 96.6716 49.9651 96.6716 49.9651C96.6716 49.9651 96.6716 49.9651 96.6716 49.9651C96.6716 49.9651 96.6716 49.9651 96.6716 49.9651C96.6716 49.9651 96.6716 49.9651 96.6716 49.9651C96.6716 49.9651 96.6716 49.9651 96.6716 49.9651C96.6716 49.9651 96.6716 49.9651 96.6716 49.9651C96.6716 49.9651 96.6716 49.9651 96.6716 49.9651C96.6716 49.9651 96.6716 49.9651 96.6716 49.9651C96.6716 49.9651 96.6716 49.9651 96.6716 49.9651C96.6716 49.9651 96.6716 49.9651 96.6716 49.9651C96.6716 49.9651 96.6716 49.9651 96.6716 49.9651C96.6716 49.9651 96.6716 49.9651 96.6716 49.9651C96.6716 49.9651 96.6716 49.9651 96.6716 49.9651C96.6716 49.9651 96.6716 49.9651 96.6716 49.9651C96.6716 49.9651 96.6716 49.9651 96.6716 49.9651C96.6716 49.9651 96.6716 49.9651 96.6716 49.9651C96.6716 49.9651 96.6716 49.9651 96.6716 49.9651C96.6716 49.9651 96.6716 49.9651 96.6716 49.9651C96.6716 49.9651 96.6716 49.9651 96.6716 49.9651C96.6716 49.9651 96.6716 49.9651 96.6716 49.9651C96.6716 49.9651 96.6716 49.9651 96.6716 49.9651C96.6716 49.9651 96.6716 49.9651 96.6716 49.9651C96.6716 49.9651 96.6716 49.9651 96.6716 49.9651C96.6716 49.9651 96.6716 49.9651 96.6716 49.9651C96.6716 49.9651 96.6716 49.9651 96.6716 49.965C96.6716 49.965 96.6716 49.965 96.6716 49.965C96.6716 49.965 96.6716 49.965 96.6716 49.965C96.6716 49.965 96.6716 49.965 96.6716 49.965C96.6716 49.965 96.6716 49.965 96.6716 49.965C96.6716 49.965 96.6716 49.965 96.6716 49.965C96.6716 49.965 96.6716 49.965 96.6716 49.965C96.6716 49.965 96.6716 49.965 96.6716 49.965C96.6716 49.965 96.6716 49.965 96.6716 49.965C96.6716 49.965 96.6716 49.965 96.6716 49.965C96.6716 49.965 96.6716 49.965 96.6716 49.965C96.6716 49.965 96.6716 49.965 96.6716 49.965C96.6716 49.965 96.6716 49.965 96.6716 49.965C96.6716 49.965 96.6716 49.965 96.6716 49.965C96.6716 49.965 96.6716 49.965 96.6716 49.965C96.6716 49.965 96.6716 49.965 96.6716 49.965C96.6716 49.965 96.6716 49.965 96.6716 49.965C96.6716 49.965 96.6716 49.965 96.6716 49.965C96.6716 49.965 96.6716 49.965 96.6716 49.965C96.6716 49.965 96.6716 49.965 96.6716 49.965C96.6716 49.965 96.6716 49.965 96.6716 49.965C96.6716 49.965 96.6716 49.965 96.6716 49.965C96.6716 49.965 96.6716 49.965 96.6716 49.965C96.6716 49.965 96.6716 49.965 96.6716 49.965C96.6716 49.965 96.6716 49.965 96.6716 49.965C96.6716 49.965 96.6716 49.965 96.6716 49.965C96.6716 49.965 96.6716 49.965 96.6716 49.965C96.6716 49.965 96.6716 49.965 96.6716 49.965C96.6716 49.965 96.6716 49.965 96.6716 49.965C96.6716 49.965 96.6716 49.965 96.6716 49.9649C96.6716 49.9649 96.6716 49.9649 96.6716 49.9649C96.6716 49.9649 96.6716 49.9649 96.6716 49.9649C96.6716 49.9649 96.6716 49.9649 96.6716 49.9649C96.6716 49.9649 96.6716 49.9649 96.6716 49.9649C96.6716 49.9649 96.6716 49.9649 96.6716 49.9649C96.6716 49.9649 96.6716 49.9649 96.6716 49.9649C96.6716 49.9649 96.6716 49.9649 96.6716 49.9649C96.6716 49.9649 96.6716 49.9649 96.6716 49.9649C96.6716 49.9649 96.6716 49.9649 96.6716 49.9649C96.6716 49.9649 96.6716 49.9649 96.6716 49.9649C96.6716 49.9649 96.6716 49.9649 96.6716 49.9649C96.6716 49.9649 96.6716 49.9649 96.6716 49.9649C96.6716 49.9649 96.6716 49.9649 96.6716 49.9649C96.6716 49.9649 96.6716 49.9649 96.6716 49.9649C96.6716 49.9649 96.6716 49.9649 96.6716 49.9649C96.6716 49.9649 96.6716 49.9649 96.6716 49.9649C96.6716 49.9649 96.6716 49.9649 96.6716 49.9649C96.6716 49.9649 96.6716 49.9649 96.6716 49.9649C96.6716 49.9649 96.6716 49.9649 96.6716 49.9649C96.6716 49.9649 96.6716 49.9649 96.6716 49.9649C96.6716 49.9649 96.6716 49.9649 96.6716 49.9649C96.6716 49.9649 96.6716 49.9649 96.6716 49.9649C96.6716 49.9649 96.6716 49.9649 96.6716 49.9649C96.6716 49.9649 96.6716 49.9649 96.6716 49.9649C96.6716 49.9649 96.6716 49.9649 96.6716 49.9649C96.6716 49.9649 96.6716 49.9649 96.6716 49.9649C96.6716 49.9649 96.6716 49.9649 96.6716 49.9649C96.6716 49.9649 96.6716 49.9649 96.6716 49.9649C96.6716 49.9649 96.6716 49.9648 96.6716 49.9648C96.6716 49.9648 96.6716 49.9648 96.6716 49.9648C96.6716 49.9648 96.6716 49.9648 96.6716 49.9648C96.6716 49.9648 96.6716 49.9648 96.6716 49.9648C96.6716 49.9648 96.6716 49.9648 96.6716 49.9648C96.6716 49.9648 96.6716 49.9648 96.6716 49.9648C96.6716 49.9648 96.6716 49.9648 96.6716 49.9648C96.6716 49.9648 96.6716 49.9648 96.6716 49.9648C96.6716 49.9648 96.6716 49.9648 96.6716 49.9648C96.6716 49.9648 96.6716 49.9648 96.6716 49.9648C96.6716 49.9648 96.6716 49.9648 96.6716 49.9648C96.6716 49.9648 96.6716 49.9648 96.6716 49.9648C96.6716 49.9648 96.6716 49.9648 96.6716 49.9648C96.6716 49.9648 96.6716 49.9648 96.6716 49.9648C96.6716 49.9648 96.6716 49.9648 96.6716 49.9648C96.6716 49.9648 96.6716 49.9648 96.6716 49.9648C96.6716 49.9648 96.6716 49.9648 96.6716 49.9648C96.6716 49.9648 96.6716 49.9648 96.6716 49.9648C96.6716 49.9648 96.6716 49.9648 96.6716 49.9648C96.6716 49.9648 96.6716 49.9648 96.6716 49.9648C96.6716 49.9648 96.6716 49.9648 96.6716 49.9648C96.6716 49.9648 96.6716 49.9648 96.6716 49.9648C96.6716 49.9648 96.6716 49.9648 96.6716 49.9648C96.6716 49.9648 96.6716 49.9648 96.6716 49.9648C96.6716 49.9648 96.6716 49.9648 96.6716 49.9648C96.6716 49.9648 96.6716 49.9648 96.6716 49.9648C96.6716 49.9648 96.6716 49.9648 96.6716 49.9648C96.6716 49.9648 96.6716 49.9648 96.6716 49.9648C96.6716 49.9648 96.6716 49.9648 96.6716 49.9648C96.6716 49.9648 96.6716 49.9647 96.6716 49.9647C96.6716 49.9647 96.6716 49.9647 96.6716 49.9647C96.6716 49.9647 96.6716 49.9647 96.6716 49.9647C96.6716 49.9647 96.6716 49.9647 96.6716 49.9647C96.6716 49.9647 96.6716 49.9647 96.6716 49.9647C96.6716 49.9647 96.6716 49.9647 96.6716 49.9647C96.6716 49.9647 96.6716 49.9647 96.6716 49.9647C96.6716 49.9647 96.6716 49.9647 96.6716 49.9647C96.6716 49.9647 96.6716 49.9647 96.6716 49.9647C96.6716 49.9647 96.6716 49.9647 96.6716 49.9647C96.6716 49.9647 96.6716 49.9647 96.6716 49.9647C96.6716 49.9647 96.6716 49.9647 96.6716 49.9647C96.6716 49.9647 96.6716 49.9647 96.6716 49.9647C96.6716 49.9647 96.6716 49.9647 96.6716 49.9647C96.6716 49.9647 96.6716 49.9647 96.6716 49.9647C96.6716 49.9647 96.6716 49.9647 96.6716 49.9647C96.6716 49.9647 96.6716 49.9647 96.6716 49.9647C96.6716 49.9647 96.6716 49.9647 96.6716 49.9647C96.6716 49.9647 96.6716 49.9647 96.6716 49.9647C96.6716 49.9647 96.6716 49.9647 96.6716 49.9647C96.6716 49.9647 96.6716 49.9647 96.6716 49.9647C96.6716 49.9647 96.6716 49.9647 96.6716 49.9647C96.6716 49.9647 96.6716 49.9647 96.6716 49.9647C96.6716 49.9647 96.6716 49.9647 96.6716 49.9647C96.6716 49.9647 96.6716 49.9647 96.6716 49.9647C96.6716 49.9647 96.6716 49.9647 96.6716 49.9647C96.6716 49.9647 96.6716 49.9647 96.6716 49.9647C96.6716 49.9647 96.6716 49.9647 96.6716 49.9647C96.6716 49.9647 96.6716 49.9647 96.6716 49.9647C96.6716 49.9646 96.6716 49.9646 96.6716 49.9646C96.6716 49.9646 96.6716 49.9646 96.6716 49.9646C96.6716 49.9646 96.6716 49.9646 96.6716 49.9646C96.6716 49.9646 96.6716 49.9646 96.6716 49.9646C96.6716 49.9646 96.6716 49.9646 96.6716 49.9646C96.6716 49.9646 96.6716 49.9646 96.6716 49.9646C96.6716 49.9646 96.6716 49.9646 96.6716 49.9646C96.6716 49.9646 96.6716 49.9646 96.6716 49.9646C96.6716 49.9646 96.6716 49.9646 96.6716 49.9646C96.6716 49.9646 96.6716 49.9646 96.6716 49.9646C96.6716 49.9646 96.6716 49.9646 96.6716 49.9646C96.6716 49.9646 96.6716 49.9646 96.6716 49.9646C96.6716 49.9646 96.6716 49.9646 96.6716 49.9646C96.6716 49.9646 96.6716 49.9646 96.6716 49.9646C96.6716 49.9646 96.6716 49.9646 96.6716 49.9646C96.6716 49.9646 96.6716 49.9646 96.6716 49.9646C96.6716 49.9646 96.6716 49.9646 96.6716 49.9646C96.6716 49.9646 96.6716 49.9646 96.6716 49.9646C96.6716 49.9646 96.6716 49.9646 96.6716 49.9646C96.6716 49.9646 96.6716 49.9646 96.6716 49.9646C96.6716 49.9646 96.6716 49.9646 96.6716 49.9646C96.6716 49.9646 96.6716 49.9646 96.6716 49.9646C96.6716 49.9646 96.6716 49.9646 96.6716 49.9646C96.6716 49.9646 96.6716 49.9646 96.6716 49.9646C96.6716 49.9646 96.6716 49.9646 96.6716 49.9646C96.6716 49.9646 96.6716 49.9646 96.6716 49.9646C96.6716 49.9646 96.6716 49.9646 96.6716 49.9646C96.6716 49.9646 96.6716 49.9646 96.6716 49.9646C96.6716 49.9646 96.6716 49.9646 96.6716 49.9646C96.6716 49.9645 96.6716 49.9645 96.6716 49.9645C96.6716 49.9645 96.6716 49.9645 96.6716 49.9645C96.6716 49.9645 96.6716 49.9645 96.6716 49.9645C96.6716 49.9645 96.6716 49.9645 96.6716 49.9645C96.6716 49.9645 96.6716 49.9645 96.6716 49.9645C96.6716 49.9645 96.6716 49.9645 96.6716 49.9645C96.6716 49.9645 96.6716 49.9645 96.6716 49.9645C96.6716 49.9645 96.6716 49.9645 96.6716 49.9645C96.6716 49.9645 96.6716 49.9645 96.6716 49.9645C96.6716 49.9645 96.6716 49.9645 96.6716 49.9645C96.6716 49.9645 96.6716 49.9645 96.6716 49.9645C96.6716 49.9645 96.6716 49.9645 96.6716 49.9645C96.6716 49.9645 96.6716 49.9645 96.6716 49.9645C96.6716 49.9645 96.6716 49.9645 96.6716 49.9645C96.6716 49.9645 96.6716 49.9645 96.6716 49.9645C96.6716 49.9645 96.6716 49.9645 96.6716 49.9645C96.6716 49.9645 96.6716 49.9645 96.6716 49.9645C96.6716 49.9645 96.6716 49.9645 96.6716 49.9645C96.6716 49.9645 96.6716 49.9645 96.6716 49.9645C96.6716 49.9645 96.6716 49.9645 96.6716 49.9645C96.6716 49.9645 96.6716 49.9645 96.6716 49.9645C96.6716 49.9645 96.6716 49.9645 96.6716 49.9645C96.6716 49.9645 96.6716 49.9645 96.6716 49.9645C96.6716 49.9645 96.6716 49.9645 96.6716 49.9645C96.6716 49.9645 96.6716 49.9645 96.6716 49.9645C96.6716 49.9645 96.6716 49.9645 96.6716 49.9645C96.6716 49.9645 96.6716 49.9645 96.6716 49.9645C96.6716 49.9645 96.6716 49.9645 96.6716 49.9645C96.6716 49.9645 96.6716 49.9645 96.6716 49.9644C96.6716 49.9644 96.6716 49.9644 96.6716 49.9644C96.6716 49.9644 96.6716 49.9644 96.6716 49.9644C96.6716 49.9644 96.6716 49.9644 96.6716 49.9644C96.6716 49.9644 96.6716 49.9644 96.6716 49.9644C96.6716 49.9644 96.6716 49.9644 96.6716 49.9644C96.6716 49.9644 96.6716 49.9644 96.6716 49.9644C96.6716 49.9644 96.6716 49.9644 96.6716 49.9644C96.6716 49.9644 96.6716 49.9644 96.6716 49.9644C96.6716 49.9644 96.6716 49.9644 96.6716 49.9644C96.6716 49.9644 96.6716 49.9644 96.6716 49.9644C96.6716 49.9644 96.6716 49.9644 96.6716 49.9644C96.6716 49.9644 96.6716 49.9644 96.6716 49.9644C96.6716 49.9644 96.6716 49.9644 96.6716 49.9644C96.6716 49.9644 96.6716 49.9644 96.6716 49.9644C96.6716 49.9644 96.6716 49.9644 96.6716 49.9644C96.6716 49.9644 96.6716 49.9644 96.6716 49.9644C96.6716 49.9644 96.6716 49.9644 96.6716 49.9644C96.6716 49.9644 96.6716 49.9644 96.6716 49.9644C96.6716 49.9644 96.6716 49.9644 96.6716 49.9644C96.6716 49.9644 96.6716 49.9644 96.6716 49.9644C96.6716 49.9644 96.6716 49.9644 96.6716 49.9644C96.6716 49.9644 96.6716 49.9644 96.6716 49.9644C96.6716 49.9644 96.6716 49.9644 96.6716 49.9644C96.6716 49.9644 96.6716 49.9644 96.6716 49.9644C96.6716 49.9644 96.6716 49.9644 96.6716 49.9644C96.6716 49.9644 96.6716 49.9644 96.6716 49.9644C96.6716 49.9644 96.6716 49.9644 96.6716 49.9644C96.6716 49.9644 96.6716 49.9644 96.6716 49.9644C96.6716 49.9644 96.6716 49.9644 96.6716 49.9643C96.6716 49.9643 96.6716 49.9643 96.6716 49.9643C96.6716 49.9643 96.6716 49.9643 96.6716 49.9643C96.6716 49.9643 96.6716 49.9643 96.6716 49.9643C96.6716 49.9643 96.6716 49.9643 96.6716 49.9643C96.6716 49.9643 96.6716 49.9643 96.6716 49.9643C96.6716 49.9643 96.6716 49.9643 96.6716 49.9643C96.6716 49.9643 96.6716 49.9643 96.6716 49.9643C96.6716 49.9643 96.6716 49.9643 96.6716 49.9643C96.6716 49.9643 96.6716 49.9643 96.6716 49.9643C96.6716 49.9643 96.6716 49.9643 96.6716 49.9643C96.6716 49.9643 96.6716 49.9643 96.6716 49.9643C96.6716 49.9643 96.6716 49.9643 96.6716 49.9643C96.6716 49.9643 96.6716 49.9643 96.6716 49.9643C96.6716 49.9643 96.6716 49.9643 96.6716 49.9643C96.6716 49.9643 96.6716 49.9643 96.6716 49.9643C96.6716 49.9643 96.6716 49.9643 96.6716 49.9643C96.6716 49.9643 96.6716 49.9643 96.6716 49.9643C96.6716 49.9643 96.6716 49.9643 96.6716 49.9643C96.6716 49.9643 96.6716 49.9643 96.6716 49.9643C96.6716 49.9643 96.6716 49.9643 96.6716 49.9643C96.6716 49.9643 96.6716 49.9643 96.6716 49.9643C96.6716 49.9643 96.6716 49.9643 96.6716 49.9643C96.6716 49.9643 96.6716 49.9643 96.6716 49.9643C96.6716 49.9643 96.6716 49.9643 96.6716 49.9643C96.6716 49.9643 96.6716 49.9643 96.6716 49.9643C96.6716 49.9643 96.6716 49.9643 96.6716 49.9643C96.6716 49.9643 96.6716 49.9643 96.6716 49.9643C96.6716 49.9643 96.6716 49.9643 96.6716 49.9643C96.6716 49.9643 96.6716 49.9643 96.6716 49.9642C96.6716 49.9642 96.6716 49.9642 96.6716 49.9642C96.6716 49.9642 96.6716 49.9642 96.6716 49.9642C96.6716 49.9642 96.6716 49.9642 96.6716 49.9642C96.6716 49.9642 96.6716 49.9642 96.6716 49.9642C96.6716 49.9642 96.6716 49.9642 96.6716 49.9642C96.6716 49.9642 96.6716 49.9642 96.6716 49.9642C96.6716 49.9642 96.6716 49.9642 96.6716 49.9642C96.6716 49.9642 96.6716 49.9642 96.6716 49.9642C96.6716 49.9642 96.6716 49.9642 96.6716 49.9642C96.6716 49.9642 96.6716 49.9642 96.6716 49.9642C96.6716 49.9642 96.6716 49.9642 96.6716 49.9642C96.6716 49.9642 96.6716 49.9642 96.6716 49.9642C96.6716 49.9642 96.6716 49.9642 96.6716 49.9642C96.6716 49.9642 96.6716 49.9642 96.6716 49.9642C96.6716 49.9642 96.6716 49.9642 96.6716 49.9642C96.6716 49.9642 96.6716 49.9642 96.6716 49.9642C96.6716 49.9642 96.6716 49.9642 96.6716 49.9642C96.6716 49.9642 96.6716 49.9642 96.6716 49.9642C96.6716 49.9642 96.6716 49.9642 96.6716 49.9642C96.6716 49.9642 96.6716 49.9642 96.6716 49.9642C96.6716 49.9642 96.6716 49.9642 96.6716 49.9642C96.6716 49.9642 96.6716 49.9642 96.6716 49.9642C96.6716 49.9642 96.6716 49.9642 96.6716 49.9642C96.6716 49.9642 96.6716 49.9642 96.6716 49.9642C96.6716 49.9642 96.6716 49.9642 96.6716 49.9642C96.6716 49.9642 96.6716 49.9642 96.6716 49.9642C96.6716 49.9642 96.6716 49.9642 96.6716 49.9642C96.6716 49.9642 96.6716 49.9642 96.6716 49.9642C96.6716 49.9642 96.6716 49.9641 96.6716 49.9641C96.6716 49.9641 96.6716 49.9641 96.6716 49.9641C96.6716 49.9641 96.6716 49.9641 96.6716 49.9641C96.6716 49.9641 96.6716 49.9641 96.6716 49.9641C96.6716 49.9641 96.6716 49.9641 96.6716 49.9641C96.6716 49.9641 96.6716 49.9641 96.6716 49.9641C96.6716 49.9641 96.6716 49.9641 96.6716 49.9641C96.6716 49.9641 96.6716 49.9641 96.6716 49.9641C96.6716 49.9641 96.6716 49.9641 96.6716 49.9641C96.6716 49.9641 96.6716 49.9641 96.6716 49.9641C96.6716 49.9641 96.6716 49.9641 96.6716 49.9641C96.6716 49.9641 96.6716 49.9641 96.6716 49.9641C96.6716 49.9641 96.6716 49.9641 96.6716 49.9641C96.6716 49.9641 96.6716 49.9641 96.6716 49.9641C96.6716 49.9641 96.6716 49.9641 96.6716 49.9641C96.6716 49.9641 96.6716 49.9641 96.6716 49.9641C96.6716 49.9641 96.6716 49.9641 96.6716 49.9641C96.6716 49.9641 96.6716 49.9641 96.6716 49.9641C96.6716 49.9641 96.6716 49.9641 96.6716 49.9641C96.6716 49.9641 96.6716 49.9641 96.6716 49.9641C96.6716 49.9641 96.6716 49.9641 96.6716 49.9641C96.6716 49.9641 96.6716 49.9641 96.6716 49.9641C96.6716 49.9641 96.6716 49.9641 96.6716 49.9641C96.6716 49.9641 96.6716 49.9641 96.6716 49.9641C96.6716 49.9641 96.6716 49.9641 96.6716 49.9641C96.6716 49.9641 96.6716 49.9641 96.6716 49.9641C96.6716 49.9641 96.6716 49.9641 96.6716 49.9641C96.6716 49.9641 96.6716 49.9641 96.6716 49.9641C96.6716 49.9641 96.6716 49.9641 96.6716 49.9641C96.6716 49.9641 96.6716 49.964 96.6716 49.964C96.6716 49.964 96.6716 49.964 96.6716 49.964C96.6716 49.964 96.6716 49.964 96.6716 49.964C96.6716 49.964 96.6716 49.964 96.6716 49.964C96.6716 49.964 96.6716 49.964 96.6716 49.964C96.6716 49.964 96.6716 49.964 96.6716 49.964C96.6716 49.964 96.6716 49.964 96.6716 49.964C96.6716 49.964 96.6716 49.964 96.6716 49.964C96.6716 49.964 96.6716 49.964 96.6716 49.964C96.6716 49.964 96.6716 49.964 96.6716 49.964C96.6716 49.964 96.6716 49.964 96.6716 49.964C96.6716 49.964 96.6716 49.964 96.6716 49.964C96.6716 49.964 96.6716 49.964 96.6716 49.964C96.6716 49.964 96.6716 49.964 96.6716 49.964C96.6716 49.964 96.6716 49.964 96.6716 49.964C96.6716 49.964 96.6716 49.964 96.6716 49.964C96.6716 49.964 96.6716 49.964 96.6716 49.964C96.6716 49.964 96.6716 49.964 96.6716 49.964C96.6716 49.964 96.6716 49.964 96.6716 49.964C96.6716 49.964 96.6716 49.964 96.6716 49.964C96.6716 49.964 96.6716 49.964 96.6716 49.964C96.6716 49.964 96.6716 49.964 96.6716 49.964C96.6716 49.964 96.6716 49.964 96.6716 49.964C96.6716 49.964 96.6716 49.964 96.6716 49.964C96.6716 49.964 96.6716 49.964 96.6716 49.964C96.6716 49.964 96.6716 49.964 96.6716 49.964C96.6716 49.964 96.6716 49.964 96.6716 49.964C96.6716 49.964 96.6716 49.964 96.6716 49.964C96.6716 49.964 96.6716 49.964 96.6716 49.964C96.6716 49.9639 96.6716 49.9639 96.6716 49.9639C96.6716 49.9639 96.6716 49.9639 96.6716 49.9639C96.6716 49.9639 96.6716 49.9639 96.6716 49.9639C96.6716 49.9639 96.6716 49.9639 96.6716 49.9639C96.6716 49.9639 96.6716 49.9639 96.6716 49.9639C96.6716 49.9639 96.6716 49.9639 96.6716 49.9639C96.6716 49.9639 96.6716 49.9639 96.6716 49.9639C96.6716 49.9639 96.6716 49.9639 96.6716 49.9639C96.6716 49.9639 96.6716 49.9639 96.6716 49.9639C96.6716 49.9639 96.6716 49.9639 96.6716 49.9639C96.6716 49.9639 96.6716 49.9639 96.6716 49.9639H92.6716ZM92.6716 49.9657C92.6716 60.6629 100.813 69.4562 111.239 70.4914L111.634 66.5109C103.234 65.6769 96.6716 58.5864 96.6716 49.9657H92.6716ZM109.436 68.5012V97H113.436V68.5012H109.436ZM111.436 95H19.6961V99H111.436V95ZM19.6961 95C14.1637 95 10.3163 93.6708 7.85296 91.3524C5.41174 89.0548 4 85.4729 4 80.2353H0C0 86.1742 1.61522 90.9746 5.1115 94.2652C8.5857 97.5351 13.5863 99 19.6961 99V95ZM4 80.2353V49.9639H0V80.2353H4ZM4 49.9639V49.0361H0V49.9639H4ZM0 18.7647V49.0361H4V18.7647H0ZM19.6961 0C13.5863 0 8.5857 1.46494 5.1115 4.73478C1.61522 8.02539 0 12.8258 0 18.7647H4C4 13.5271 5.41174 9.9452 7.85296 7.64758C10.3163 5.32918 14.1637 4 19.6961 4V0Z" fill="black"/>
<path d="M110.971 89.4118H25.8671V93.4118H110.971V89.4118ZM25.8671 89.4118C20.7292 89.4118 17.184 88.2459 14.9359 86.2529C12.7323 84.2992 11.4512 81.26 11.4512 76.7625H7.45117C7.45117 82.0311 8.97804 86.3165 12.2824 89.246C15.5423 92.1361 20.205 93.4118 25.8671 93.4118V89.4118ZM11.4512 76.7625V49.5H7.45117V76.7625H11.4512Z" fill="black"/>
<path d="M110.971 10.5196H25.8671V6.51961H110.971V10.5196ZM25.8671 10.5196C20.7199 10.5196 17.1677 11.6626 14.9192 13.6118C12.7235 15.5151 11.4512 18.4683 11.4512 22.8434H7.45117C7.45117 17.6693 8.98683 13.4606 12.2991 10.5893C15.5586 7.76387 20.2144 6.51961 25.8671 6.51961V10.5196ZM11.4512 22.8434V49.5H7.45117V22.8434H11.4512Z" fill="black"/>
</svg>
