<svg width="110" height="110" viewBox="0 0 110 110" fill="none" xmlns="http://www.w3.org/2000/svg">
<path d="M13 41.5078L22.7864 46.7395V55.5932L33.3883 61.6298V53.1785L43.9903 58.8127V68.4712L55 74.5078" stroke="black" stroke-width="4" stroke-linejoin="round"/>
<path d="M55 103.508V56.1745L13.4038 32.5078L13 79.44L55 103.508Z" stroke="black" stroke-width="4" stroke-linejoin="round"/>
<path d="M97 41.5078L87.2136 46.7395V55.5932L76.6117 61.6298V53.1785L66.0097 58.8127V68.4712L55 74.5078" stroke="black" stroke-width="4" stroke-linejoin="round"/>
<path d="M55.0005 7L56.0319 5.28648C55.3973 4.90451 54.6036 4.90451 53.969 5.28648L55.0005 7ZM13.4043 32.0385L12.3729 30.3249C11.7652 30.6907 11.3967 31.3509 11.4044 32.0601C11.4121 32.7693 11.7948 33.4214 12.4102 33.7739L13.4043 32.0385ZM96.5966 32.0385L97.5907 33.7739C98.2061 33.4214 98.5888 32.7693 98.5965 32.0601C98.6042 31.3509 98.2357 30.6907 97.628 30.3249L96.5966 32.0385ZM55.0005 55.8654L54.0064 57.6008C54.6222 57.9536 55.3787 57.9536 55.9945 57.6008L55.0005 55.8654ZM53.969 5.28648L12.3729 30.3249L14.4357 33.752L56.0319 8.71352L53.969 5.28648ZM53.969 8.71352L95.5652 33.752L97.628 30.3249L56.0319 5.28648L53.969 8.71352ZM95.6025 30.303L54.0064 54.1299L55.9945 57.6008L97.5907 33.7739L95.6025 30.303ZM12.4102 33.7739L54.0064 57.6008L55.9945 54.1299L14.3984 30.303L12.4102 33.7739Z" fill="black"/>
<path d="M55 103.508V56.1745L96.5962 32.5078L97 79.44L55 103.508Z" stroke="black" stroke-width="4" stroke-linejoin="round"/>
</svg>
