<svg width="63" height="89" viewBox="0 0 63 89" fill="none" xmlns="http://www.w3.org/2000/svg">
<path d="M46.4649 35.2396C45.1103 17.8091 35.5879 7.45053 28.6452 2.92389C26.9633 1.82731 24.8883 3.01787 24.5832 5.00234C21.1562 27.2955 12.7667 30.1195 6.61905 41C-7.68129 66.3097 14.1158 87 32.619 87C60.2959 87 66.0901 52.682 56.0965 34.8383C54.8316 32.5798 51.7222 33.6887 50.3047 35.8546C50.0237 36.2839 49.7257 36.6513 49.4218 36.9637C48.1988 38.2209 46.6008 36.9883 46.4649 35.2396Z" stroke="black" stroke-width="4"/>
<path d="M25.327 62.2613C24.9791 51.632 28.9079 44.3449 32.1985 40.7967C33.504 39.3891 35.4459 40.3023 35.8987 42.1679C38.8681 54.4027 42.9924 54.2515 47.1168 62.5C54.6336 77.5331 40.9486 87 32.117 87C19.2453 87 11.2813 76.267 16.2112 61.8492C17.0641 59.3547 20.704 59.5665 22.1107 61.7962C22.444 62.3245 22.7779 62.8208 23.1009 63.2744C24.2154 64.8392 25.3899 64.1813 25.327 62.2613Z" stroke="black" stroke-width="4"/>
</svg>
