<svg width="92" height="90" viewBox="0 0 92 90" fill="none" xmlns="http://www.w3.org/2000/svg">
<path d="M85.4264 60.7519L84.2506 59.1341L85.4264 60.7519ZM89.0413 49.5221L90.9401 48.894L89.0413 49.5221ZM6.09953 60.7557L4.9193 62.3704L6.09953 60.7557ZM2.50666 49.5419L0.60785 48.9138L2.50666 49.5419ZM39.7624 85.3619L40.9427 83.7472L39.7624 85.3619ZM51.5427 85.3779L52.7185 86.9958L51.5427 85.3779ZM40.9427 83.7472L7.27976 59.1411L4.9193 62.3704L38.5822 86.9765L40.9427 83.7472ZM52.7185 86.9958L86.6022 62.3698L84.2506 59.1341L50.3669 83.7601L52.7185 86.9958ZM90.9401 48.894L77.4889 8.23126L73.6913 9.4875L87.1425 50.1502L90.9401 48.894ZM66.0961 0H45.9078V4H66.0961V0ZM45.9078 0H45.6467V4H45.9078V0ZM25.4584 4H45.6467V0H25.4584V4ZM4.40546 50.17L17.8632 9.4875L14.0656 8.23126L0.60785 48.9138L4.40546 50.17ZM77.4889 8.23126C75.8636 3.31786 71.2713 0 66.0961 0V4C69.5463 4 72.6078 6.21191 73.6913 9.4875L77.4889 8.23126ZM86.6022 62.3698C90.826 59.3 92.58 53.8513 90.9401 48.894L87.1425 50.1502C88.2357 53.4551 87.0664 57.0876 84.2506 59.1341L86.6022 62.3698ZM25.4584 0C20.2832 0 15.6909 3.31786 14.0656 8.23126L17.8632 9.4875C18.9468 6.21191 22.0082 4 25.4584 4V0ZM7.27976 59.1411C4.47598 57.0916 3.31474 53.4673 4.40546 50.17L0.60785 48.9138C-1.02823 53.8597 0.713622 59.2962 4.9193 62.3704L7.27976 59.1411ZM38.5822 86.9765C42.7901 90.0523 48.5023 90.0601 52.7185 86.9958L50.3669 83.7601C47.5561 85.8029 43.7479 85.7978 40.9427 83.7472L38.5822 86.9765Z" fill="black"/>
<path d="M17.998 31H73.998" stroke="black" stroke-width="4" stroke-linecap="round"/>
<path d="M24.5 44L66.6281 67.1423" stroke="black" stroke-width="4" stroke-linecap="round"/>
<path d="M66.999 43.5L25.3682 67.1406" stroke="black" stroke-width="4" stroke-linecap="round"/>
</svg>
