<svg id="Livello_1" data-name="Livello 1" xmlns="http://www.w3.org/2000/svg" viewBox="0 0 443 230"><path d="M100.78,132.9v-28a1.42,1.42,0,0,0-1.38-1.38H94.47a1.41,1.41,0,0,1-1.37-1.37V97.18a1.41,1.41,0,0,1,1.37-1.37H99.4a1.42,1.42,0,0,0,1.38-1.38V89.5a1.41,1.41,0,0,1,1.37-1.37h4.93a1.41,1.41,0,0,0,1.37-1.37v-5a1.42,1.42,0,0,1,1.38-1.38h12.68a1.42,1.42,0,0,1,1.38,1.38v5a1.42,1.42,0,0,1-1.38,1.37H109.83a1.42,1.42,0,0,0-1.38,1.37v4.93a1.42,1.42,0,0,0,1.38,1.38h12.68a1.41,1.41,0,0,1,1.38,1.37v4.93a1.41,1.41,0,0,1-1.38,1.37H109.83a1.42,1.42,0,0,0-1.38,1.38v28a1.41,1.41,0,0,1-1.37,1.37h-4.93A1.41,1.41,0,0,1,100.78,132.9Z"/><path d="M126.07,86.76v-5a1.41,1.41,0,0,1,1.37-1.38h4.93a1.41,1.41,0,0,1,1.37,1.38v5a1.41,1.41,0,0,1-1.37,1.37h-4.93A1.41,1.41,0,0,1,126.07,86.76Zm0,46.14V97.18a1.41,1.41,0,0,1,1.37-1.37h4.93a1.41,1.41,0,0,1,1.37,1.37V132.9a1.41,1.41,0,0,1-1.37,1.37h-4.93A1.41,1.41,0,0,1,126.07,132.9Z"/><path d="M136.49,132.9V97.18a1.41,1.41,0,0,1,1.37-1.37h20.37a1.41,1.41,0,0,1,1.37,1.37v4.93a1.41,1.41,0,0,0,1.38,1.37h4.93a1.42,1.42,0,0,1,1.37,1.38v28a1.41,1.41,0,0,1-1.37,1.37H161a1.41,1.41,0,0,1-1.38-1.37v-28a1.41,1.41,0,0,0-1.37-1.38H145.54a1.41,1.41,0,0,0-1.37,1.38v28a1.41,1.41,0,0,1-1.38,1.37h-4.93A1.41,1.41,0,0,1,136.49,132.9Z"/><path d="M177.3,132.9V128a1.41,1.41,0,0,0-1.38-1.37H171a1.42,1.42,0,0,1-1.38-1.38V104.86a1.42,1.42,0,0,1,1.38-1.38h4.92a1.41,1.41,0,0,0,1.38-1.37V97.18a1.41,1.41,0,0,1,1.37-1.37h12.69a1.41,1.41,0,0,1,1.37,1.37v4.93a1.41,1.41,0,0,0,1.38,1.37H199a1.42,1.42,0,0,1,1.37,1.38v12.69a1.42,1.42,0,0,1-1.37,1.37H178.67a1.41,1.41,0,0,0-1.37,1.37v4.93a1.41,1.41,0,0,0,1.37,1.38H199a1.41,1.41,0,0,1,1.37,1.37v4.93a1.41,1.41,0,0,1-1.37,1.37H178.67A1.41,1.41,0,0,1,177.3,132.9Zm1.37-21.74h12.69a1.41,1.41,0,0,0,1.37-1.37v-4.93a1.41,1.41,0,0,0-1.37-1.38H178.67a1.41,1.41,0,0,0-1.37,1.38v4.93A1.41,1.41,0,0,0,178.67,111.16Z"/><path d="M216.33,148.25V104.86a1.41,1.41,0,0,1,1.37-1.38h4.93a1.41,1.41,0,0,0,1.37-1.37V97.18a1.41,1.41,0,0,1,1.38-1.37h12.68a1.41,1.41,0,0,1,1.38,1.37v4.93a1.41,1.41,0,0,0,1.37,1.37h4.93a1.42,1.42,0,0,1,1.38,1.38v20.36a1.42,1.42,0,0,1-1.38,1.38h-4.93a1.41,1.41,0,0,0-1.37,1.37v4.93a1.41,1.41,0,0,1-1.38,1.37H225.38a1.42,1.42,0,0,0-1.38,1.38v12.6a1.41,1.41,0,0,1-1.37,1.38H217.7A1.41,1.41,0,0,1,216.33,148.25Zm9-21.65h12.68a1.42,1.42,0,0,0,1.38-1.38V104.86a1.42,1.42,0,0,0-1.38-1.38H225.38a1.42,1.42,0,0,0-1.38,1.38v20.36A1.42,1.42,0,0,0,225.38,126.6Z"/><path d="M250.59,132.9v-28a1.41,1.41,0,0,1,1.37-1.38h4.93a1.41,1.41,0,0,0,1.38-1.37V97.18a1.41,1.41,0,0,1,1.37-1.37h12.69a1.41,1.41,0,0,1,1.37,1.37v4.93a1.41,1.41,0,0,1-1.37,1.37H259.64a1.41,1.41,0,0,0-1.37,1.38v28a1.41,1.41,0,0,1-1.38,1.37H252A1.41,1.41,0,0,1,250.59,132.9Z"/><path d="M275.88,86.76v-5a1.42,1.42,0,0,1,1.38-1.38h4.92a1.42,1.42,0,0,1,1.38,1.38v5a1.42,1.42,0,0,1-1.38,1.37h-4.92A1.42,1.42,0,0,1,275.88,86.76Zm0,46.14V97.18a1.41,1.41,0,0,1,1.38-1.37h4.92a1.41,1.41,0,0,1,1.38,1.37V132.9a1.41,1.41,0,0,1-1.38,1.37h-4.92A1.41,1.41,0,0,1,275.88,132.9Z"/><path d="M286.3,132.9V97.18a1.41,1.41,0,0,1,1.38-1.37H308a1.41,1.41,0,0,1,1.38,1.37v4.93a1.41,1.41,0,0,0,1.37,1.37h4.93a1.41,1.41,0,0,1,1.37,1.38v28a1.41,1.41,0,0,1-1.37,1.37h-4.93a1.41,1.41,0,0,1-1.37-1.37v-28a1.42,1.42,0,0,0-1.38-1.38H295.35a1.42,1.42,0,0,0-1.37,1.38v28a1.41,1.41,0,0,1-1.37,1.37h-4.93A1.41,1.41,0,0,1,286.3,132.9Z"/><path d="M334.47,132.9V128a1.41,1.41,0,0,0-1.38-1.37h-4.93a1.42,1.42,0,0,1-1.37-1.38V104.86a1.42,1.42,0,0,0-1.38-1.38h-4.92a1.41,1.41,0,0,1-1.38-1.37V97.18a1.41,1.41,0,0,1,1.38-1.37h4.92a1.42,1.42,0,0,0,1.38-1.38V81.75a1.42,1.42,0,0,1,1.37-1.38h4.93a1.42,1.42,0,0,1,1.38,1.38V94.43a1.41,1.41,0,0,0,1.37,1.38h12.69a1.41,1.41,0,0,1,1.37,1.37v4.93a1.41,1.41,0,0,1-1.37,1.37H335.84a1.41,1.41,0,0,0-1.37,1.38v20.36a1.41,1.41,0,0,0,1.37,1.38h12.69A1.41,1.41,0,0,1,349.9,128v4.93a1.41,1.41,0,0,1-1.37,1.37H335.84A1.41,1.41,0,0,1,334.47,132.9Z"/></svg>